<svg id="Layer_1" data-name="Layer 1" xmlns="http://www.w3.org/2000/svg" viewBox="0 0 511.91 272.92"><defs><style>.cls-1{fill:#abddf3;}.cls-2{fill:#d6d6d6;}.cls-3{opacity:0;}.cls-4{fill:none;stroke:#3d4752;stroke-miterlimit:10;stroke-width:0.9px;}.cls-5{fill:#3d4752;}</style></defs><title>erd-school</title><rect class="cls-1" x="26.45" y="225.45" width="126" height="18"/><rect class="cls-2" x="26.45" y="32.4" width="126" height="13.95"/><rect class="cls-2" x="26.45" y="60.3" width="126" height="13.95"/><rect class="cls-2" x="26.45" y="151.78" width="126" height="13.95"/><rect class="cls-2" x="26.45" y="179.69" width="126" height="15.07"/><rect class="cls-2" x="206.13" y="165.6" width="126" height="13.95"/><rect class="cls-2" x="205.86" y="87.88" width="126" height="15.07"/><rect class="cls-2" x="26.45" y="257.4" width="126" height="15.08"/><rect class="cls-2" x="385.46" y="115.96" width="126" height="13.95"/><path class="cls-3" d="M27.57,225.45H151.32a1.13,1.13,0,0,1,1.13,1.13v44.78a1.13,1.13,0,0,1-1.12,1.13H27.57a1.12,1.12,0,0,1-1.12-1.12V226.57A1.12,1.12,0,0,1,27.57,225.45Z"/><path class="cls-4" d="M27.57,225.45H151.32a1.13,1.13,0,0,1,1.13,1.13v44.78a1.13,1.13,0,0,1-1.12,1.13H27.57a1.12,1.12,0,0,1-1.12-1.12V226.57A1.12,1.12,0,0,1,27.57,225.45Z"/><rect class="cls-1" x="26.45" y="0.45" width="126" height="18"/><path class="cls-4" d="M27.57.45H151.32a1.13,1.13,0,0,1,1.13,1.13V88.2a1.13,1.13,0,0,1-1.12,1.13H27.57a1.12,1.12,0,0,1-1.12-1.12V1.57A1.12,1.12,0,0,1,27.57.45Z"/><line class="cls-4" x1="26.45" y1="18.45" x2="152.45" y2="18.45"/><line class="cls-4" x1="89.45" y1="18.45" x2="89.45" y2="89.32"/><path class="cls-5" d="M40.22,12.84a31.46,31.46,0,0,1,.12-4.07h0l-.35.91L38.74,11.8h-.36L37.11,9.68l-.36-.9h0l.16,1.12v2.95H35.82V7.17h1l1.51,2.59.27.65h0l.24-.66,1.43-2.58h1v5.67H40.22" transform="translate(-0.08 -0.02)"/><path class="cls-5" d="M43.09,11.56c0,.3.19.48.5.48a.88.88,0,0,0,.78-.45v-.53c-.58,0-1.24,0-1.28.49m1.21-1.78c-.31-.4-1.39-.14-1.79,0L42.25,9A4.4,4.4,0,0,1,44,8.71c1,0,1.47.45,1.46,1.42a9.4,9.4,0,0,0,.09,2.72h-.86l-.17-.56h0a1.34,1.34,0,0,1-1.19.62A1.12,1.12,0,0,1,42,11.73c0-1.15,1.13-1.33,2.36-1.3A.91.91,0,0,0,44.29,9.78Z" transform="translate(-0.08 -0.02)"/><path class="cls-5" d="M47.27,9.33a1,1,0,0,1,1.4-.53l-.14,1a.82.82,0,0,0-1.18.45v2.62H46.29v-4h.82l.12.53h0" transform="translate(-0.08 -0.02)"/><polyline class="cls-5" points="50.39 11.15 50.1 11.15 50.1 11.99 50.1 12.82 49.05 12.82 49.05 9.99 49.05 7.16 50.1 7.16 50.1 8.83 50.1 10.5 50.35 10.39 51.27 8.78 52.43 8.78 51.46 10.31 51.05 10.62 51.49 10.94 52.58 12.82 51.38 12.82"/><path class="cls-5" d="M54.27,12.11c.43.07.71-.43.38-.65C54,11,52.93,11,52.94,9.91c0-.83.53-1.23,1.39-1.23A3.19,3.19,0,0,1,55.75,9l-.23.76a3.43,3.43,0,0,0-1-.23c-.44,0-.63.41-.33.6.66.4,1.73.43,1.71,1.51,0,.89-.61,1.32-1.57,1.32a3,3,0,0,1-1.42-.36l.29-.79a2.43,2.43,0,0,0,1.13.31" transform="translate(-0.08 -0.02)"/><path class="cls-5" d="M39.69,25.24c-.6,0-.83.36-1,.87v2.71h-.65V26.53c0-.7,0-1.29-.76-1.29a1,1,0,0,0-1,.79v2.79h-.65v-4h.45l.12.49h0a1.5,1.5,0,0,1,1.26-.59.93.93,0,0,1,1,.67,1.44,1.44,0,0,1,1.26-.67c1.05,0,1.26.66,1.26,1.72v2.43h-.65V26.38c0-.67-.1-1.16-.77-1.14" transform="translate(-0.08 -0.02)"/><path class="cls-5" d="M42.65,27.67a.66.66,0,0,0,.72.65,1.08,1.08,0,0,0,1.05-.64V27c-.77,0-1.73-.08-1.77.66M45.08,26a12.53,12.53,0,0,0,.06,2.88h-.48l-.17-.57h0a1.41,1.41,0,0,1-1.26.62A1.09,1.09,0,0,1,42,27.73c0-1.19,1.23-1.27,2.45-1.22.08-.75,0-1.29-.8-1.24a3,3,0,0,0-1.2.28l-.2-.49a3,3,0,0,1,1.57-.36A1.11,1.11,0,0,1,45.08,26Z" transform="translate(-0.08 -0.02)"/><path class="cls-5" d="M46.91,25.26a1.1,1.1,0,0,1,1.44-.49l-.14.62c-.6-.23-1.26,0-1.26.59v2.83H46.3v-4h.45l.12.49h0" transform="translate(-0.08 -0.02)"/><polyline class="cls-5" points="49.99 26.98 49.62 26.98 49.62 27.89 49.62 28.8 48.97 28.8 48.97 25.96 48.97 23.13 49.62 23.13 49.62 24.86 49.62 26.58 49.95 26.47 51.21 24.75 51.96 24.75 50.72 26.38 50.39 26.64 50.8 26.97 52.15 28.8 51.35 28.8"/><path class="cls-5" d="M55.28,24a.43.43,0,0,1-.45-.43.45.45,0,0,1,.45-.45.47.47,0,0,1,.47.45.46.46,0,0,1-.47.43m-.31.8h.65v4H55v-4Z" transform="translate(-0.08 -0.02)"/><path class="cls-5" d="M57.45,26.81c0,.84.21,1.54,1,1.54a.93.93,0,0,0,1-.87v-2a1.23,1.23,0,0,0-.83-.21c-.85,0-1.2.58-1.19,1.55m1.17-2.11a2,2,0,0,1,.85.14V23.15h.65v4.28a7.73,7.73,0,0,0,.08,1.41h-.44l-.16-.58h0a1.34,1.34,0,0,1-1.19.66c-1.21,0-1.59-.79-1.6-2.11S57.4,24.7,58.62,24.7Z" transform="translate(-0.08 -0.02)"/><path class="cls-5" d="M99.15,24a.43.43,0,0,1-.45-.43.45.45,0,0,1,.45-.45.47.47,0,0,1,.47.45.46.46,0,0,1-.47.43m-.31.8h.65v4h-.65v-4Z" transform="translate(-0.08 -0.02)"/><path class="cls-5" d="M102.79,24.67c1.05,0,1.34.64,1.34,1.7v2.45h-.65V26.51c0-.76-.13-1.26-.85-1.27a1.12,1.12,0,0,0-1.1.81v2.77h-.65v-4h.45l.12.49h0a1.58,1.58,0,0,1,1.3-.59" transform="translate(-0.08 -0.02)"/><path class="cls-5" d="M106.31,28.92c-.74,0-.9-.41-.9-1.22V25.34h-.63v-.57h.63V24l.65-.19v1h1.1v.57h-1.1v2.24c0,.48,0,.75.46.77a1.48,1.48,0,0,0,.68-.16l.15.49a2.23,2.23,0,0,1-1,.23" transform="translate(-0.08 -0.02)"/><path class="cls-5" d="M110.43,26.35c0-.75-.24-1.11-.9-1.11s-1,.37-1.11,1.11h2m-.71,2a1.61,1.61,0,0,0,1-.32l.24.47a2.32,2.32,0,0,1-1.39.42c-1.28,0-1.77-.84-1.79-2.12s.57-2.09,1.78-2.12,1.71.89,1.49,2.19h-2.6C108.41,27.8,108.78,28.35,109.72,28.35Z" transform="translate(-0.08 -0.02)"/><path class="cls-5" d="M112.44,26.8c0,.84.2,1.54,1,1.54a.91.91,0,0,0,1-.85V25.42a1.9,1.9,0,0,0-.83-.15c-.83,0-1.19.6-1.18,1.54m1.28-2.11a3.74,3.74,0,0,1,1.38.24V29c0,1.07-.58,1.53-1.65,1.53a3,3,0,0,1-1.29-.22l.17-.55a2.65,2.65,0,0,0,1,.2c1,0,1.2-.53,1.13-1.55h0a1.15,1.15,0,0,1-1.07.49c-1.22,0-1.58-.79-1.59-2.1S112.4,24.7,113.72,24.7Z" transform="translate(-0.08 -0.02)"/><path class="cls-5" d="M118.8,26.35c0-.75-.24-1.11-.9-1.11s-1,.37-1.11,1.11h2m-.71,2a1.61,1.61,0,0,0,1-.32l.24.47a2.32,2.32,0,0,1-1.39.42c-1.28,0-1.77-.84-1.79-2.12s.57-2.09,1.78-2.12,1.71.89,1.49,2.19h-2.6C116.79,27.8,117.15,28.35,118.09,28.35Z" transform="translate(-0.08 -0.02)"/><path class="cls-5" d="M121.06,25.26a1.1,1.1,0,0,1,1.44-.49l-.14.62c-.6-.23-1.26,0-1.26.59v2.83h-.65v-4h.45l.12.49h0" transform="translate(-0.08 -0.02)"/><path class="cls-5" d="M35.6,42c.48.29,1.94.58,1.9-.35,0-.74-1-.66-1.45-1a1,1,0,0,1-.5-.92c0-.79.48-1.12,1.26-1.13a2.74,2.74,0,0,1,1.25.26l-.15.53c-.42-.21-1.79-.51-1.7.32.07.67,1,.6,1.44,1a1.11,1.11,0,0,1,.51,1c0,.83-.55,1.21-1.41,1.22a2.71,2.71,0,0,1-1.33-.3" transform="translate(-0.08 -0.02)"/><path class="cls-5" d="M40.12,42.87c-.74,0-.9-.41-.9-1.21V39.29h-.63v-.57h.63v-.8l.65-.19v1H41v.57h-1.1v2.24c0,.48,0,.75.46.77a1.48,1.48,0,0,0,.68-.16l.15.49a2.23,2.23,0,0,1-1,.23" transform="translate(-0.08 -0.02)"/><path class="cls-5" d="M43.12,42.87c-1,0-1.33-.65-1.32-1.7V38.72h.65V41c0,.7.1,1.28.79,1.27a1.16,1.16,0,0,0,1.09-.87V38.72H45a38.93,38.93,0,0,0,.09,4h-.45l-.16-.64h0a1.45,1.45,0,0,1-1.3.74" transform="translate(-0.08 -0.02)"/><path class="cls-5" d="M46.68,40.76c0,.84.21,1.54,1,1.54a.93.93,0,0,0,1-.87v-2a1.23,1.23,0,0,0-.83-.21c-.85,0-1.2.58-1.19,1.55m1.17-2.11a2,2,0,0,1,.85.14V37.1h.65v4.28a7.73,7.73,0,0,0,.08,1.41H49l-.16-.58h0a1.34,1.34,0,0,1-1.19.66c-1.21,0-1.59-.79-1.6-2.11S46.63,38.65,47.84,38.65Z" transform="translate(-0.08 -0.02)"/><path class="cls-5" d="M53.05,40.3c0-.75-.24-1.11-.9-1.11s-1,.37-1.11,1.11h2m-.71,2a1.61,1.61,0,0,0,1-.32l.24.47a2.32,2.32,0,0,1-1.39.42c-1.28,0-1.77-.84-1.79-2.12s.57-2.09,1.78-2.12,1.71.89,1.49,2.19H51C51,41.75,51.4,42.3,52.34,42.3Z" transform="translate(-0.08 -0.02)"/><path class="cls-5" d="M56.61,38.62c1.05,0,1.34.64,1.34,1.7v2.45H57.3V40.46c0-.76-.13-1.26-.85-1.27a1.12,1.12,0,0,0-1.1.81v2.77H54.7v-4h.45l.12.49h0a1.58,1.58,0,0,1,1.3-.59" transform="translate(-0.08 -0.02)"/><path class="cls-5" d="M60.13,42.87c-.74,0-.9-.41-.9-1.21V39.29H58.6v-.57h.63v-.8l.65-.19v1H61v.57h-1.1v2.24c0,.48,0,.75.46.77a1.48,1.48,0,0,0,.68-.16l.15.49a2.23,2.23,0,0,1-1,.23" transform="translate(-0.08 -0.02)"/><path class="cls-5" d="M64.46,37.92a.43.43,0,0,1-.45-.43.45.45,0,0,1,.45-.45.47.47,0,0,1,.47.45.46.46,0,0,1-.47.43m-.31.8h.65v4h-.65v-4Z" transform="translate(-0.08 -0.02)"/><path class="cls-5" d="M66.63,40.76c0,.84.21,1.54,1,1.54a.93.93,0,0,0,1-.87v-2a1.23,1.23,0,0,0-.83-.21c-.85,0-1.2.58-1.19,1.55m1.17-2.11a2,2,0,0,1,.85.14V37.1h.65v4.28a7.73,7.73,0,0,0,.08,1.41h-.44l-.16-.58h0a1.34,1.34,0,0,1-1.19.66c-1.21,0-1.59-.79-1.6-2.11S66.58,38.65,67.8,38.65Z" transform="translate(-0.08 -0.02)"/><path class="cls-5" d="M99.15,37.92a.43.43,0,0,1-.45-.43.45.45,0,0,1,.45-.45.47.47,0,0,1,.47.45.46.46,0,0,1-.47.43m-.31.8h.65v4h-.65v-4Z" transform="translate(-0.08 -0.02)"/><path class="cls-5" d="M102.79,38.62c1.05,0,1.34.64,1.34,1.7v2.45h-.65V40.46c0-.76-.13-1.26-.85-1.27a1.12,1.12,0,0,0-1.1.81v2.77h-.65v-4h.45l.12.49h0a1.58,1.58,0,0,1,1.3-.59" transform="translate(-0.08 -0.02)"/><path class="cls-5" d="M106.31,42.87c-.74,0-.9-.41-.9-1.21V39.29h-.63v-.57h.63v-.8l.65-.19v1h1.1v.57h-1.1v2.24c0,.48,0,.75.46.77a1.48,1.48,0,0,0,.68-.16l.15.49a2.23,2.23,0,0,1-1,.23" transform="translate(-0.08 -0.02)"/><path class="cls-5" d="M110.43,40.3c0-.75-.24-1.11-.9-1.11s-1,.37-1.11,1.11h2m-.71,2a1.61,1.61,0,0,0,1-.32l.24.47a2.32,2.32,0,0,1-1.39.42c-1.28,0-1.77-.84-1.79-2.12s.57-2.09,1.78-2.12,1.71.89,1.49,2.19h-2.6C108.41,41.75,108.78,42.3,109.72,42.3Z" transform="translate(-0.08 -0.02)"/><path class="cls-5" d="M112.44,40.75c0,.84.2,1.54,1,1.54a.91.91,0,0,0,1-.85V39.37a1.91,1.91,0,0,0-.83-.15c-.83,0-1.19.6-1.18,1.54m1.28-2.11a3.74,3.74,0,0,1,1.38.24V43c0,1.07-.58,1.53-1.65,1.53a3,3,0,0,1-1.29-.22l.17-.55a2.65,2.65,0,0,0,1,.2c1,0,1.2-.53,1.13-1.55h0a1.15,1.15,0,0,1-1.07.49c-1.22,0-1.58-.79-1.59-2.1S112.4,38.65,113.72,38.65Z" transform="translate(-0.08 -0.02)"/><path class="cls-5" d="M118.8,40.3c0-.75-.24-1.11-.9-1.11s-1,.37-1.11,1.11h2m-.71,2a1.61,1.61,0,0,0,1-.32l.24.47a2.32,2.32,0,0,1-1.39.42c-1.28,0-1.77-.84-1.79-2.12s.57-2.09,1.78-2.12,1.71.89,1.49,2.19h-2.6C116.79,41.75,117.15,42.3,118.09,42.3Z" transform="translate(-0.08 -0.02)"/><path class="cls-5" d="M121.06,39.21a1.1,1.1,0,0,1,1.44-.49l-.14.62c-.6-.23-1.26,0-1.26.59v2.83h-.65v-4h.45l.12.49h0" transform="translate(-0.08 -0.02)"/><path class="cls-5" d="M35.6,56c.48.29,1.94.58,1.9-.35,0-.74-1-.66-1.45-1a1,1,0,0,1-.5-.92c0-.79.48-1.12,1.26-1.13a2.74,2.74,0,0,1,1.25.26l-.15.53c-.42-.21-1.79-.51-1.7.32.07.67,1,.6,1.44,1a1.11,1.11,0,0,1,.51,1c0,.83-.55,1.21-1.41,1.22a2.71,2.71,0,0,1-1.33-.3" transform="translate(-0.08 -0.02)"/><path class="cls-5" d="M40.37,56.82c-1,0-1.33-.65-1.32-1.7V52.67h.65V55c0,.7.1,1.28.79,1.27a1.16,1.16,0,0,0,1.09-.87V52.67h.65a38.93,38.93,0,0,0,.09,4h-.45l-.16-.64h0a1.45,1.45,0,0,1-1.3.74" transform="translate(-0.08 -0.02)"/><path class="cls-5" d="M46.17,54.62c0-.81-.22-1.48-1-1.48a1,1,0,0,0-1,.87v2a1.76,1.76,0,0,0,.83.18c.85,0,1.22-.63,1.21-1.6m-1.3,2.17a3,3,0,0,1-1.38-.31V51h.65v2h0a1.37,1.37,0,0,1,1.1-.49c1.17,0,1.57.79,1.57,2.06S46.16,56.78,44.86,56.79Z" transform="translate(-0.08 -0.02)"/><path class="cls-5" d="M48.3,51.87a.43.43,0,0,1-.45-.43A.45.45,0,0,1,48.3,51a.47.47,0,0,1,.47.45.46.46,0,0,1-.47.43m-1,6c.66,0,.68-.53.68-1.17v-4h.65v4.27c0,1-.32,1.6-1.33,1.48v-.55Z" transform="translate(-0.08 -0.02)"/><path class="cls-5" d="M52.48,54.25c0-.75-.24-1.11-.9-1.11s-1,.37-1.11,1.11h2m-.71,2a1.61,1.61,0,0,0,1-.32l.24.47a2.32,2.32,0,0,1-1.39.42c-1.28,0-1.77-.84-1.79-2.12s.57-2.09,1.78-2.12,1.71.89,1.49,2.19h-2.6C50.47,55.7,50.83,56.25,51.77,56.25Z" transform="translate(-0.08 -0.02)"/><path class="cls-5" d="M55.7,56.25a1.47,1.47,0,0,0,.9-.29l.21.49a2.15,2.15,0,0,1-1.27.36c-1.27,0-1.68-.85-1.72-2.12a1.84,1.84,0,0,1,2.42-2.06,2.15,2.15,0,0,1,.49.17l-.19.56a1.84,1.84,0,0,0-.9-.23c-.77,0-1.15.52-1.15,1.56s.32,1.53,1.21,1.56" transform="translate(-0.08 -0.02)"/><path class="cls-5" d="M58.7,56.82c-.74,0-.9-.41-.9-1.22V53.24h-.63v-.57h.63v-.8l.65-.19v1h1.1v.57h-1.1v2.24c0,.48,0,.75.46.77a1.48,1.48,0,0,0,.68-.16l.15.49a2.23,2.23,0,0,1-1,.23" transform="translate(-0.08 -0.02)"/><path class="cls-5" d="M63,51.87a.43.43,0,0,1-.45-.43A.45.45,0,0,1,63,51a.47.47,0,0,1,.47.45.46.46,0,0,1-.47.43m-.31.8h.65v4h-.65v-4Z" transform="translate(-0.08 -0.02)"/><path class="cls-5" d="M65.19,54.71c0,.84.21,1.54,1,1.54a.93.93,0,0,0,1-.87v-2a1.23,1.23,0,0,0-.83-.21c-.85,0-1.2.58-1.19,1.55m1.17-2.11a2,2,0,0,1,.85.14V51h.65v4.28a7.73,7.73,0,0,0,.08,1.41H67.5l-.16-.58h0a1.34,1.34,0,0,1-1.19.66c-1.21,0-1.59-.79-1.6-2.11S65.14,52.6,66.36,52.6Z" transform="translate(-0.08 -0.02)"/><path class="cls-5" d="M99.15,51.87a.43.43,0,0,1-.45-.43.45.45,0,0,1,.45-.45.47.47,0,0,1,.47.45.46.46,0,0,1-.47.43m-.31.8h.65v4h-.65v-4Z" transform="translate(-0.08 -0.02)"/><path class="cls-5" d="M102.79,52.57c1.05,0,1.34.64,1.34,1.7v2.45h-.65V54.41c0-.76-.13-1.26-.85-1.27a1.12,1.12,0,0,0-1.1.81v2.77h-.65v-4h.45l.12.49h0a1.58,1.58,0,0,1,1.3-.59" transform="translate(-0.08 -0.02)"/><path class="cls-5" d="M106.31,56.82c-.74,0-.9-.41-.9-1.22V53.24h-.63v-.57h.63v-.8l.65-.19v1h1.1v.57h-1.1v2.24c0,.48,0,.75.46.77a1.48,1.48,0,0,0,.68-.16l.15.49a2.23,2.23,0,0,1-1,.23" transform="translate(-0.08 -0.02)"/><path class="cls-5" d="M110.43,54.25c0-.75-.24-1.11-.9-1.11s-1,.37-1.11,1.11h2m-.71,2a1.61,1.61,0,0,0,1-.32l.24.47a2.32,2.32,0,0,1-1.39.42c-1.28,0-1.77-.84-1.79-2.12s.57-2.09,1.78-2.12,1.71.89,1.49,2.19h-2.6C108.41,55.7,108.78,56.25,109.72,56.25Z" transform="translate(-0.08 -0.02)"/><path class="cls-5" d="M112.44,54.7c0,.84.2,1.54,1,1.54a.91.91,0,0,0,1-.85V53.32a1.91,1.91,0,0,0-.83-.15c-.83,0-1.19.6-1.18,1.54m1.28-2.11a3.74,3.74,0,0,1,1.38.24V56.9c0,1.07-.58,1.53-1.65,1.53a3,3,0,0,1-1.29-.22l.17-.55a2.65,2.65,0,0,0,1,.2c1,0,1.2-.53,1.13-1.55h0a1.15,1.15,0,0,1-1.07.49c-1.22,0-1.58-.79-1.59-2.1S112.4,52.6,113.72,52.6Z" transform="translate(-0.08 -0.02)"/><path class="cls-5" d="M118.8,54.25c0-.75-.24-1.11-.9-1.11s-1,.37-1.11,1.11h2m-.71,2a1.61,1.61,0,0,0,1-.32l.24.47a2.32,2.32,0,0,1-1.39.42c-1.28,0-1.77-.84-1.79-2.12s.57-2.09,1.78-2.12,1.71.89,1.49,2.19h-2.6C116.79,55.7,117.15,56.25,118.09,56.25Z" transform="translate(-0.08 -0.02)"/><path class="cls-5" d="M121.06,53.16a1.1,1.1,0,0,1,1.44-.49l-.14.62c-.6-.23-1.26,0-1.26.59v2.83h-.65v-4h.45l.12.49h0" transform="translate(-0.08 -0.02)"/><path class="cls-5" d="M36.15,68.66c0,.84.21,1.54,1,1.54a.93.93,0,0,0,1-.87v-2a1.23,1.23,0,0,0-.83-.21c-.85,0-1.2.58-1.19,1.55m1.17-2.11a2,2,0,0,1,.85.14V65h.65v4.28a7.73,7.73,0,0,0,.08,1.41h-.44l-.16-.58h0a1.34,1.34,0,0,1-1.19.66c-1.21,0-1.59-.79-1.6-2.11S36.11,66.55,37.32,66.55Z" transform="translate(-0.08 -0.02)"/><path class="cls-5" d="M40.43,69.52a.66.66,0,0,0,.72.65,1.08,1.08,0,0,0,1.05-.64v-.67c-.77,0-1.73-.08-1.77.66m2.43-1.72a12.53,12.53,0,0,0,.06,2.88h-.48l-.17-.57h0a1.41,1.41,0,0,1-1.26.62,1.09,1.09,0,0,1-1.21-1.15c0-1.19,1.23-1.27,2.45-1.22.08-.75,0-1.29-.8-1.24a3,3,0,0,0-1.2.28l-.2-.49a3,3,0,0,1,1.57-.36A1.11,1.11,0,0,1,42.86,67.8Z" transform="translate(-0.08 -0.02)"/><path class="cls-5" d="M45.08,70.77c-.74,0-.9-.41-.9-1.22V67.19h-.63v-.57h.63v-.8l.65-.19v1h1.1v.57h-1.1v2.24c0,.48,0,.75.46.77A1.48,1.48,0,0,0,46,70l.15.49a2.23,2.23,0,0,1-1,.23" transform="translate(-0.08 -0.02)"/><path class="cls-5" d="M49.2,68.2c0-.75-.24-1.11-.9-1.11s-1,.37-1.11,1.11h2m-.71,2a1.61,1.61,0,0,0,1-.32l.24.47a2.32,2.32,0,0,1-1.39.42c-1.28,0-1.77-.84-1.79-2.12s.57-2.09,1.78-2.12,1.71.89,1.49,2.19h-2.6C47.19,69.65,47.55,70.2,48.49,70.2Z" transform="translate(-0.08 -0.02)"/><path class="cls-5" d="M99.15,68.66c0,.84.21,1.54,1,1.54a.93.93,0,0,0,1-.87v-2a1.23,1.23,0,0,0-.83-.21c-.85,0-1.2.58-1.19,1.55m1.17-2.11a2,2,0,0,1,.85.14V65h.65v4.28a7.73,7.73,0,0,0,.08,1.41h-.44l-.16-.58h0a1.34,1.34,0,0,1-1.19.66c-1.21,0-1.59-.79-1.6-2.11S99.11,66.55,100.32,66.55Z" transform="translate(-0.08 -0.02)"/><path class="cls-5" d="M103.43,69.52a.66.66,0,0,0,.72.65,1.08,1.08,0,0,0,1.05-.64v-.67c-.77,0-1.73-.08-1.77.66m2.43-1.72a12.53,12.53,0,0,0,.06,2.88h-.48l-.17-.57h0a1.41,1.41,0,0,1-1.26.62,1.09,1.09,0,0,1-1.22-1.15c0-1.19,1.23-1.27,2.45-1.22.08-.75,0-1.29-.8-1.24a3,3,0,0,0-1.2.28l-.2-.49a3,3,0,0,1,1.57-.36A1.11,1.11,0,0,1,105.86,67.8Z" transform="translate(-0.08 -0.02)"/><path class="cls-5" d="M108.08,70.77c-.74,0-.9-.41-.9-1.22V67.19h-.63v-.57h.63v-.8l.65-.19v1h1.1v.57h-1.1v2.24c0,.48,0,.75.46.77A1.48,1.48,0,0,0,109,70l.15.49a2.23,2.23,0,0,1-1,.23" transform="translate(-0.08 -0.02)"/><path class="cls-5" d="M112.2,68.2c0-.75-.24-1.11-.9-1.11s-1,.37-1.11,1.11h2m-.71,2a1.61,1.61,0,0,0,1-.32l.24.47a2.32,2.32,0,0,1-1.39.42c-1.28,0-1.77-.84-1.79-2.12s.57-2.09,1.78-2.12,1.71.89,1.49,2.19h-2.6C110.19,69.65,110.55,70.2,111.49,70.2Z" transform="translate(-0.08 -0.02)"/><polyline class="cls-5" points="115.8 64.88 116.31 65.11 113.36 71.78 112.85 71.56"/><path class="cls-5" d="M117.72,70.77c-.74,0-.9-.41-.9-1.22V67.19h-.63v-.57h.63v-.8l.65-.19v1h1.1v.57h-1.1v2.24c0,.48,0,.75.46.77a1.48,1.48,0,0,0,.68-.16l.15.49a2.23,2.23,0,0,1-1,.23" transform="translate(-0.08 -0.02)"/><path class="cls-5" d="M119.91,65.82a.43.43,0,0,1-.45-.43.45.45,0,0,1,.45-.45.47.47,0,0,1,.47.45.46.46,0,0,1-.47.43m-.31.8h.65v4h-.65v-4Z" transform="translate(-0.08 -0.02)"/><path class="cls-5" d="M125.62,67.09c-.6,0-.83.36-1,.87v2.71H124V68.38c0-.7,0-1.29-.76-1.29a1,1,0,0,0-1,.79v2.79h-.65v-4h.45l.12.49h0a1.5,1.5,0,0,1,1.26-.59.93.93,0,0,1,1,.67,1.44,1.44,0,0,1,1.26-.67c1.05,0,1.26.66,1.26,1.72v2.43h-.65V68.23c0-.67-.1-1.16-.77-1.14" transform="translate(-0.08 -0.02)"/><path class="cls-5" d="M130.68,68.2c0-.75-.24-1.11-.9-1.11s-1,.37-1.11,1.11h2m-.71,2a1.61,1.61,0,0,0,1-.32l.24.47a2.32,2.32,0,0,1-1.39.42c-1.28,0-1.77-.84-1.79-2.12s.57-2.09,1.78-2.12,1.71.89,1.49,2.19h-2.6C128.66,69.65,129,70.2,130,70.2Z" transform="translate(-0.08 -0.02)"/><path class="cls-5" d="M39.69,81c-.6,0-.83.36-1,.87v2.71h-.65V82.33c0-.7,0-1.29-.76-1.29a1,1,0,0,0-1,.79v2.79h-.65v-4h.45l.12.49h0a1.5,1.5,0,0,1,1.26-.59.93.93,0,0,1,1,.67,1.44,1.44,0,0,1,1.26-.67c1.05,0,1.26.66,1.26,1.72v2.43h-.65V82.18c0-.67-.1-1.16-.77-1.14" transform="translate(-0.08 -0.02)"/><path class="cls-5" d="M42.65,83.47a.66.66,0,0,0,.72.65,1.08,1.08,0,0,0,1.05-.64V82.8c-.77,0-1.73-.08-1.77.66m2.43-1.72a12.53,12.53,0,0,0,.06,2.88h-.48l-.17-.57h0a1.41,1.41,0,0,1-1.26.62A1.09,1.09,0,0,1,42,83.53c0-1.19,1.23-1.27,2.45-1.22.08-.75,0-1.29-.8-1.24a3,3,0,0,0-1.2.28l-.2-.49a3,3,0,0,1,1.57-.36A1.11,1.11,0,0,1,45.08,81.75Z" transform="translate(-0.08 -0.02)"/><path class="cls-5" d="M46.91,81.06a1.1,1.1,0,0,1,1.44-.49l-.14.62c-.6-.23-1.26,0-1.26.59v2.83H46.3v-4h.45l.12.49h0" transform="translate(-0.08 -0.02)"/><polyline class="cls-5" points="49.99 82.78 49.62 82.78 49.62 83.69 49.62 84.6 48.97 84.6 48.97 81.77 48.97 78.93 49.62 78.93 49.62 80.66 49.62 82.38 49.95 82.27 51.21 80.55 51.96 80.55 50.72 82.18 50.39 82.44 50.8 82.77 52.15 84.6 51.35 84.6"/><path class="cls-5" d="M99.15,79.77a.43.43,0,0,1-.45-.43.45.45,0,0,1,.45-.45.47.47,0,0,1,.47.45.46.46,0,0,1-.47.43m-.31.8h.65v4h-.65v-4Z" transform="translate(-0.08 -0.02)"/><path class="cls-5" d="M102.79,80.47c1.05,0,1.34.64,1.34,1.7v2.45h-.65V82.31c0-.76-.13-1.26-.85-1.27a1.12,1.12,0,0,0-1.1.81v2.77h-.65v-4h.45l.12.49h0a1.58,1.58,0,0,1,1.3-.59" transform="translate(-0.08 -0.02)"/><path class="cls-5" d="M106.31,84.72c-.74,0-.9-.41-.9-1.22V81.14h-.63v-.57h.63v-.8l.65-.19v1h1.1v.57h-1.1v2.24c0,.48,0,.75.46.77a1.48,1.48,0,0,0,.68-.16l.15.49a2.23,2.23,0,0,1-1,.23" transform="translate(-0.08 -0.02)"/><path class="cls-5" d="M110.43,82.15c0-.75-.24-1.11-.9-1.11s-1,.37-1.11,1.11h2m-.71,2a1.61,1.61,0,0,0,1-.32l.24.47a2.32,2.32,0,0,1-1.39.42c-1.28,0-1.77-.84-1.79-2.12s.57-2.09,1.78-2.12,1.71.89,1.49,2.19h-2.6C108.41,83.6,108.78,84.15,109.72,84.15Z" transform="translate(-0.08 -0.02)"/><path class="cls-5" d="M112.44,82.6c0,.84.2,1.54,1,1.54a.91.91,0,0,0,1-.85V81.22a1.91,1.91,0,0,0-.83-.15c-.83,0-1.19.6-1.18,1.54m1.28-2.11a3.74,3.74,0,0,1,1.38.24V84.8c0,1.07-.58,1.53-1.65,1.53a3,3,0,0,1-1.29-.22l.17-.55a2.65,2.65,0,0,0,1,.2c1,0,1.2-.53,1.13-1.55h0a1.15,1.15,0,0,1-1.07.49c-1.22,0-1.58-.79-1.59-2.1S112.4,80.5,113.72,80.5Z" transform="translate(-0.08 -0.02)"/><path class="cls-5" d="M118.8,82.15c0-.75-.24-1.11-.9-1.11s-1,.37-1.11,1.11h2m-.71,2a1.61,1.61,0,0,0,1-.32l.24.47a2.32,2.32,0,0,1-1.39.42c-1.28,0-1.77-.84-1.79-2.12s.57-2.09,1.78-2.12,1.71.89,1.49,2.19h-2.6C116.79,83.6,117.15,84.15,118.09,84.15Z" transform="translate(-0.08 -0.02)"/><path class="cls-5" d="M121.06,81.06a1.1,1.1,0,0,1,1.44-.49l-.14.62c-.6-.23-1.26,0-1.26.59v2.83h-.65v-4h.45l.12.49h0" transform="translate(-0.08 -0.02)"/><rect class="cls-1" x="26.45" y="119.83" width="126" height="18"/><path class="cls-4" d="M27.57,119.83H151.32a1.13,1.13,0,0,1,1.13,1.13v72.68a1.13,1.13,0,0,1-1.12,1.13H27.57a1.12,1.12,0,0,1-1.12-1.12V121a1.12,1.12,0,0,1,1.12-1.12Z"/><line class="cls-4" x1="26.45" y1="137.83" x2="152.45" y2="137.83"/><line class="cls-4" x1="89.45" y1="137.83" x2="89.45" y2="194.76"/><path class="cls-5" d="M35.91,131.1c.56.33,2.36.66,2.36-.35,0-.66-.79-.74-1.3-1a1.85,1.85,0,0,1-1.29-1.65c-.08-1.77,2.24-1.9,3.56-1.29l-.35.93c-.46-.28-2.06-.62-2.11.27.1.63.8.73,1.3,1s1.29.68,1.29,1.62c0,1.24-.83,1.73-2.07,1.76a4.22,4.22,0,0,1-1.75-.34" transform="translate(-0.08 -0.02)"/><path class="cls-5" d="M41.31,132.39c-.79,0-1.09-.4-1.09-1.23v-2h-.56v-.89h.56v-.76l1.05-.3v1.06h1v.89h-1v1.56c0,.47,0,.79.4.79a1.14,1.14,0,0,0,.54-.13l.19.81a2.76,2.76,0,0,1-1.1.25" transform="translate(-0.08 -0.02)"/><path class="cls-5" d="M44.16,132.39c-1,0-1.29-.62-1.29-1.64v-2.52h1.05v2.3c0,.58,0,.92.58.93a.85.85,0,0,0,.79-.62v-2.62h1.05a27.26,27.26,0,0,0,.13,4h-.79l-.19-.6h0a1.49,1.49,0,0,1-1.3.71" transform="translate(-0.08 -0.02)"/><path class="cls-5" d="M48.17,130.35c0,.62.18,1.14.76,1.15a.69.69,0,0,0,.74-.58V129.2a.85.85,0,0,0-.61-.18c-.72,0-.89.49-.89,1.33m.76-2.22a1.8,1.8,0,0,1,.74.12V126.6h1.05v4.24a8.28,8.28,0,0,0,.08,1.43H50l-.15-.53h0a1.28,1.28,0,0,1-1.18.63c-1.14,0-1.6-.79-1.6-2.07S47.66,128.13,48.93,128.13Z" transform="translate(-0.08 -0.02)"/><path class="cls-5" d="M54,129.86c0-.54-.15-.91-.66-.91s-.79.38-.85.91H54m-.49,1.68a1.82,1.82,0,0,0,1-.31l.35.69a2.7,2.7,0,0,1-1.55.46c-1.32,0-1.88-.83-1.89-2.14s.66-2.14,1.94-2.14A1.46,1.46,0,0,1,55,129.75a3.93,3.93,0,0,1-.08.77H52.5C52.54,131.2,52.81,131.54,53.54,131.54Z" transform="translate(-0.08 -0.02)"/><path class="cls-5" d="M58,128.11c1,0,1.26.64,1.26,1.64v2.52H58.23V130c0-.58-.1-.92-.62-.93a.83.83,0,0,0-.8.61v2.62H55.75v-4h.83l.12.53h0a1.53,1.53,0,0,1,1.29-.65" transform="translate(-0.08 -0.02)"/><path class="cls-5" d="M61.39,132.39c-.79,0-1.09-.4-1.09-1.23v-2h-.56v-.89h.56v-.76l1.05-.3v1.06h1v.89h-1v1.56c0,.47,0,.79.4.79a1.14,1.14,0,0,0,.54-.13l.19.81a2.76,2.76,0,0,1-1.1.25" transform="translate(-0.08 -0.02)"/><path class="cls-5" d="M64.15,131.54c.43.07.71-.43.38-.65-.65-.43-1.73-.45-1.71-1.56,0-.83.53-1.23,1.39-1.23a3.19,3.19,0,0,1,1.42.32l-.23.76a3.43,3.43,0,0,0-1-.23c-.44,0-.63.41-.33.6.66.4,1.73.43,1.71,1.51,0,.89-.61,1.32-1.57,1.32a3,3,0,0,1-1.42-.36l.29-.79a2.43,2.43,0,0,0,1.13.31" transform="translate(-0.08 -0.02)"/><path class="cls-5" d="M35.68,147.44c.72.4,2.73.58,2.65-.63s-1.36-1.09-2-1.6a1.5,1.5,0,0,1-.7-1.28c0-1.54,2-1.7,3.3-1.18l-.2.59a3.71,3.71,0,0,0-1.36-.25c-.84,0-1.4.75-.87,1.33.76.83,2.54.8,2.54,2.34,0,1.11-.79,1.57-1.93,1.6a3.73,3.73,0,0,1-1.62-.3" transform="translate(-0.08 -0.02)"/><path class="cls-5" d="M41,148.35c-.74,0-.9-.41-.9-1.22v-2.37h-.63v-.57h.63v-.8l.65-.19v1h1.1v.57h-1.1V147c0,.48,0,.75.46.77a1.48,1.48,0,0,0,.68-.16l.15.49a2.23,2.23,0,0,1-1,.23" transform="translate(-0.08 -0.02)"/><path class="cls-5" d="M44,148.35c-1,0-1.33-.65-1.32-1.7V144.2h.65v2.31c0,.7.1,1.28.79,1.27a1.16,1.16,0,0,0,1.09-.87V144.2h.65a38.93,38.93,0,0,0,.09,4h-.45l-.16-.64h0a1.45,1.45,0,0,1-1.3.74" transform="translate(-0.08 -0.02)"/><path class="cls-5" d="M47.57,146.24c0,.84.21,1.54,1,1.54a.93.93,0,0,0,1-.87v-2a1.23,1.23,0,0,0-.83-.21c-.85,0-1.2.58-1.19,1.55m1.17-2.11a2,2,0,0,1,.85.14v-1.68h.65v4.28a7.73,7.73,0,0,0,.08,1.41h-.44l-.16-.58h0a1.34,1.34,0,0,1-1.19.66c-1.21,0-1.59-.79-1.6-2.11S47.52,144.13,48.73,144.13Z" transform="translate(-0.08 -0.02)"/><path class="cls-5" d="M53.94,145.78c0-.75-.24-1.11-.9-1.11s-1,.37-1.11,1.11h2m-.71,2a1.61,1.61,0,0,0,1-.32l.24.47a2.32,2.32,0,0,1-1.39.42c-1.28,0-1.77-.84-1.79-2.12s.57-2.09,1.78-2.12,1.71.89,1.49,2.19h-2.6C51.92,147.23,52.29,147.78,53.23,147.78Z" transform="translate(-0.08 -0.02)"/><path class="cls-5" d="M57.51,144.1c1.05,0,1.34.64,1.34,1.7v2.45h-.65v-2.31c0-.76-.13-1.26-.85-1.27a1.12,1.12,0,0,0-1.1.81v2.77h-.65v-4H56l.12.49h0a1.58,1.58,0,0,1,1.3-.59" transform="translate(-0.08 -0.02)"/><path class="cls-5" d="M61,148.35c-.74,0-.9-.41-.9-1.22v-2.37h-.63v-.57h.63v-.8l.65-.19v1h1.1v.57h-1.1V147c0,.48,0,.75.46.77a1.48,1.48,0,0,0,.68-.16l.15.49a2.23,2.23,0,0,1-1,.23" transform="translate(-0.08 -0.02)"/><path class="cls-5" d="M65.36,143.4a.43.43,0,0,1-.45-.43.45.45,0,0,1,.45-.45.47.47,0,0,1,.47.45.46.46,0,0,1-.47.43m-.31.8h.65v4h-.65v-4Z" transform="translate(-0.08 -0.02)"/><path class="cls-5" d="M67.53,146.24c0,.84.21,1.54,1,1.54a.93.93,0,0,0,1-.87v-2a1.23,1.23,0,0,0-.83-.21c-.85,0-1.2.58-1.19,1.55m1.17-2.11a2,2,0,0,1,.85.14v-1.68h.65v4.28a7.73,7.73,0,0,0,.08,1.41h-.44l-.16-.58h0a1.34,1.34,0,0,1-1.19.66c-1.21,0-1.59-.79-1.6-2.11S67.48,144.13,68.7,144.13Z" transform="translate(-0.08 -0.02)"/><path class="cls-5" d="M99.15,143.4a.43.43,0,0,1-.45-.43.45.45,0,0,1,.45-.45.47.47,0,0,1,.47.45.46.46,0,0,1-.47.43m-.31.8h.65v4h-.65v-4Z" transform="translate(-0.08 -0.02)"/><path class="cls-5" d="M102.79,144.1c1.05,0,1.34.64,1.34,1.7v2.45h-.65v-2.31c0-.76-.13-1.26-.85-1.27a1.12,1.12,0,0,0-1.1.81v2.77h-.65v-4h.45l.12.49h0a1.58,1.58,0,0,1,1.3-.59" transform="translate(-0.08 -0.02)"/><path class="cls-5" d="M106.31,148.35c-.74,0-.9-.41-.9-1.22v-2.37h-.63v-.57h.63v-.8l.65-.19v1h1.1v.57h-1.1V147c0,.48,0,.75.46.77a1.48,1.48,0,0,0,.68-.16l.15.49a2.23,2.23,0,0,1-1,.23" transform="translate(-0.08 -0.02)"/><path class="cls-5" d="M110.43,145.78c0-.75-.24-1.11-.9-1.11s-1,.37-1.11,1.11h2m-.71,2a1.61,1.61,0,0,0,1-.32l.24.47a2.32,2.32,0,0,1-1.39.42c-1.28,0-1.77-.84-1.79-2.12s.57-2.09,1.78-2.12,1.71.89,1.49,2.19h-2.6C108.41,147.23,108.78,147.78,109.72,147.78Z" transform="translate(-0.08 -0.02)"/><path class="cls-5" d="M112.44,146.23c0,.84.2,1.54,1,1.54a.91.91,0,0,0,1-.85v-2.07a1.91,1.91,0,0,0-.83-.15c-.83,0-1.19.6-1.18,1.54m1.28-2.11a3.74,3.74,0,0,1,1.38.24v4.07c0,1.07-.58,1.53-1.65,1.53a3,3,0,0,1-1.29-.22l.17-.55a2.65,2.65,0,0,0,1,.2c1,0,1.2-.53,1.13-1.55h0a1.15,1.15,0,0,1-1.07.49c-1.22,0-1.58-.79-1.59-2.1S112.4,144.13,113.72,144.13Z" transform="translate(-0.08 -0.02)"/><path class="cls-5" d="M118.8,145.78c0-.75-.24-1.11-.9-1.11s-1,.37-1.11,1.11h2m-.71,2a1.61,1.61,0,0,0,1-.32l.24.47a2.32,2.32,0,0,1-1.39.42c-1.28,0-1.77-.84-1.79-2.12s.57-2.09,1.78-2.12,1.71.89,1.49,2.19h-2.6C116.79,147.23,117.15,147.78,118.09,147.78Z" transform="translate(-0.08 -0.02)"/><path class="cls-5" d="M121.06,144.69a1.1,1.1,0,0,1,1.44-.49l-.14.62c-.6-.23-1.26,0-1.26.59v2.83h-.65v-4h.45l.12.49h0" transform="translate(-0.08 -0.02)"/><path class="cls-5" d="M37.12,157c-.61,0-.58.51-.58,1.1h1.08v.57H36.54v3.48h-.65v-3.48h-.63v-.57h.63c0-1,.18-1.69,1.16-1.67a2.2,2.2,0,0,1,.87.15l-.15.54a1.59,1.59,0,0,0-.66-.13" transform="translate(-0.08 -0.02)"/><path class="cls-5" d="M38.74,157.35a.43.43,0,0,1-.45-.43.45.45,0,0,1,.45-.45.47.47,0,0,1,.47.45.46.46,0,0,1-.47.43m-.31.8h.65v4h-.65v-4Z" transform="translate(-0.08 -0.02)"/><path class="cls-5" d="M41.07,158.64a1.1,1.1,0,0,1,1.44-.49l-.14.62c-.6-.23-1.26,0-1.26.59v2.83h-.65v-4h.45l.12.49h0" transform="translate(-0.08 -0.02)"/><path class="cls-5" d="M43.1,161.45c.48.29,1.94.58,1.9-.35,0-.74-1-.66-1.45-1a1,1,0,0,1-.5-.92c0-.79.48-1.12,1.26-1.13a2.74,2.74,0,0,1,1.25.26l-.15.53c-.42-.21-1.79-.51-1.7.32.07.67,1,.6,1.44,1a1.11,1.11,0,0,1,.51,1c0,.83-.55,1.21-1.41,1.22a2.71,2.71,0,0,1-1.33-.3" transform="translate(-0.08 -0.02)"/><path class="cls-5" d="M47.62,162.3c-.74,0-.9-.41-.9-1.22v-2.37h-.63v-.57h.63v-.8l.65-.19v1h1.1v.57h-1.1V161c0,.48,0,.75.46.77a1.48,1.48,0,0,0,.68-.16l.15.49a2.23,2.23,0,0,1-1,.23" transform="translate(-0.08 -0.02)"/><path class="cls-5" d="M53.42,158.05c1.05,0,1.34.64,1.34,1.7v2.45H54.1v-2.31c0-.76-.13-1.26-.85-1.27a1.12,1.12,0,0,0-1.1.81v2.77H51.5v-4H52l.12.49h0a1.58,1.58,0,0,1,1.3-.59" transform="translate(-0.08 -0.02)"/><path class="cls-5" d="M56.3,161a.66.66,0,0,0,.72.65,1.08,1.08,0,0,0,1.05-.64v-.67c-.77,0-1.73-.08-1.77.66m2.43-1.72a12.53,12.53,0,0,0,.06,2.88h-.48l-.17-.57h0a1.41,1.41,0,0,1-1.26.62,1.09,1.09,0,0,1-1.22-1.15c0-1.19,1.23-1.27,2.45-1.22.08-.75,0-1.29-.8-1.24a3,3,0,0,0-1.2.28l-.2-.49a3,3,0,0,1,1.57-.36A1.11,1.11,0,0,1,58.73,159.33Z" transform="translate(-0.08 -0.02)"/><path class="cls-5" d="M63.93,158.62c-.6,0-.83.36-1,.87v2.71h-.65v-2.29c0-.7,0-1.29-.76-1.29a1,1,0,0,0-1,.79v2.79H60v-4h.45l.12.49h0a1.5,1.5,0,0,1,1.26-.59.93.93,0,0,1,1,.67,1.44,1.44,0,0,1,1.26-.67c1.05,0,1.26.66,1.26,1.72v2.43H64.7v-2.44c0-.67-.1-1.16-.77-1.14" transform="translate(-0.08 -0.02)"/><path class="cls-5" d="M69,159.73c0-.75-.24-1.11-.9-1.11S67,159,67,159.73h2m-.71,2a1.61,1.61,0,0,0,1-.32l.24.47a2.32,2.32,0,0,1-1.39.42c-1.28,0-1.77-.84-1.79-2.12s.57-2.09,1.78-2.12,1.71.89,1.49,2.19H67C67,161.18,67.34,161.73,68.28,161.73Z" transform="translate(-0.08 -0.02)"/><path class="cls-5" d="M98.9,158.15a32.83,32.83,0,0,1,1.21,3.14,25.61,25.61,0,0,1,1.11-3.14h.7l-1.73,4.14h-.28l-1.76-4.14h.75" transform="translate(-0.08 -0.02)"/><path class="cls-5" d="M103,161a.66.66,0,0,0,.72.65,1.08,1.08,0,0,0,1.05-.64v-.67c-.77,0-1.73-.08-1.77.66m2.43-1.72a12.53,12.53,0,0,0,.06,2.88H105l-.17-.57h0a1.41,1.41,0,0,1-1.26.62,1.09,1.09,0,0,1-1.22-1.15c0-1.19,1.23-1.27,2.45-1.22.08-.75,0-1.29-.8-1.24a3,3,0,0,0-1.2.28l-.2-.49a3,3,0,0,1,1.57-.36A1.11,1.11,0,0,1,105.41,159.33Z" transform="translate(-0.08 -0.02)"/><path class="cls-5" d="M107.24,158.64a1.1,1.1,0,0,1,1.44-.49l-.14.62c-.6-.23-1.26,0-1.26.59v2.83h-.65v-4h.45l.12.49h0" transform="translate(-0.08 -0.02)"/><path class="cls-5" d="M111,161.73a1.47,1.47,0,0,0,.9-.29l.21.49a2.15,2.15,0,0,1-1.27.36c-1.27,0-1.68-.85-1.72-2.12a1.84,1.84,0,0,1,2.42-2.06,2.15,2.15,0,0,1,.49.17l-.19.56a1.84,1.84,0,0,0-.9-.23c-.77,0-1.15.52-1.15,1.56s.32,1.53,1.21,1.56" transform="translate(-0.08 -0.02)"/><path class="cls-5" d="M115,158.05c1.06,0,1.33.63,1.33,1.7v2.45h-.65v-2.31c0-.74-.12-1.27-.87-1.27a1.05,1.05,0,0,0-1.09.88v2.7H113v-5.67h.65v2.07h0a1.51,1.51,0,0,1,1.24-.55" transform="translate(-0.08 -0.02)"/><path class="cls-5" d="M117.83,161a.66.66,0,0,0,.72.65,1.08,1.08,0,0,0,1.05-.64v-.67c-.77,0-1.73-.08-1.77.66m2.43-1.72a12.53,12.53,0,0,0,.06,2.88h-.48l-.17-.57h0a1.41,1.41,0,0,1-1.26.62,1.09,1.09,0,0,1-1.22-1.15c0-1.19,1.23-1.27,2.45-1.22.08-.75,0-1.29-.8-1.24a3,3,0,0,0-1.2.28l-.2-.49a3,3,0,0,1,1.57-.36A1.11,1.11,0,0,1,120.26,159.33Z" transform="translate(-0.08 -0.02)"/><path class="cls-5" d="M122.09,158.64a1.1,1.1,0,0,1,1.44-.49l-.14.62c-.6-.23-1.26,0-1.26.59v2.83h-.65v-4h.45l.12.49h0" transform="translate(-0.08 -0.02)"/><path class="cls-5" d="M36.62,176.25a.79.79,0,0,1-.83-.91v-4.86h.65v4.67c-.08.58.48.6.87.44l.07.51a2.12,2.12,0,0,1-.76.15" transform="translate(-0.08 -0.02)"/><path class="cls-5" d="M38.44,175a.66.66,0,0,0,.72.65,1.08,1.08,0,0,0,1.05-.64v-.67c-.77,0-1.73-.08-1.77.66m2.43-1.72a12.53,12.53,0,0,0,.06,2.88h-.48l-.17-.57h0a1.41,1.41,0,0,1-1.26.62,1.09,1.09,0,0,1-1.22-1.15c0-1.19,1.23-1.27,2.45-1.22.08-.75,0-1.29-.8-1.24a3,3,0,0,0-1.2.28l-.2-.49a3,3,0,0,1,1.57-.36A1.11,1.11,0,0,1,40.87,173.28Z" transform="translate(-0.08 -0.02)"/><path class="cls-5" d="M42,175.4c.48.29,1.94.58,1.9-.35,0-.74-1-.66-1.45-1a1,1,0,0,1-.5-.92c0-.79.48-1.12,1.26-1.13a2.74,2.74,0,0,1,1.25.26l-.15.53c-.42-.21-1.79-.51-1.7.32.07.67,1,.6,1.44,1a1.11,1.11,0,0,1,.51,1c0,.83-.55,1.21-1.41,1.22a2.71,2.71,0,0,1-1.33-.3" transform="translate(-0.08 -0.02)"/><path class="cls-5" d="M46.5,176.25c-.74,0-.9-.41-.9-1.22v-2.37H45v-.57h.63v-.8l.65-.19v1h1.1v.57h-1.1v2.24c0,.48,0,.75.46.77a1.48,1.48,0,0,0,.68-.16l.15.49a2.23,2.23,0,0,1-1,.23" transform="translate(-0.08 -0.02)"/><path class="cls-5" d="M52.29,172c1.05,0,1.34.64,1.34,1.7v2.45H53v-2.31c0-.76-.13-1.26-.85-1.27a1.12,1.12,0,0,0-1.1.81v2.77h-.65v-4h.45l.12.49h0a1.58,1.58,0,0,1,1.3-.59" transform="translate(-0.08 -0.02)"/><path class="cls-5" d="M55.17,175a.66.66,0,0,0,.72.65,1.08,1.08,0,0,0,1.05-.64v-.67c-.77,0-1.73-.08-1.77.66m2.43-1.72a12.53,12.53,0,0,0,.06,2.88h-.48L57,175.6h0a1.41,1.41,0,0,1-1.26.62,1.09,1.09,0,0,1-1.22-1.15c0-1.19,1.23-1.27,2.45-1.22.08-.75,0-1.29-.8-1.24a3,3,0,0,0-1.2.28l-.2-.49a3,3,0,0,1,1.57-.36A1.11,1.11,0,0,1,57.6,173.28Z" transform="translate(-0.08 -0.02)"/><path class="cls-5" d="M62.8,172.57c-.6,0-.83.36-1,.87v2.71H61.2v-2.29c0-.7,0-1.29-.76-1.29a1,1,0,0,0-1,.79v2.79h-.65v-4h.45l.12.49h0a1.5,1.5,0,0,1,1.26-.59.93.93,0,0,1,1,.67A1.44,1.44,0,0,1,63,172c1.05,0,1.26.66,1.26,1.72v2.43h-.65v-2.44c0-.67-.1-1.16-.77-1.14" transform="translate(-0.08 -0.02)"/><path class="cls-5" d="M67.87,173.68c0-.75-.24-1.11-.9-1.11s-1,.37-1.11,1.11h2m-.71,2a1.61,1.61,0,0,0,1-.32l.24.47a2.32,2.32,0,0,1-1.39.42c-1.28,0-1.77-.84-1.79-2.12S65.74,172,67,172s1.71.89,1.49,2.19h-2.6C65.85,175.13,66.21,175.68,67.15,175.68Z" transform="translate(-0.08 -0.02)"/><path class="cls-5" d="M98.9,172.1a32.83,32.83,0,0,1,1.21,3.14,25.61,25.61,0,0,1,1.11-3.14h.7l-1.73,4.14h-.28l-1.76-4.14h.75" transform="translate(-0.08 -0.02)"/><path class="cls-5" d="M103,175a.66.66,0,0,0,.72.65,1.08,1.08,0,0,0,1.05-.64v-.67c-.77,0-1.73-.08-1.77.66m2.43-1.72a12.53,12.53,0,0,0,.06,2.88H105l-.17-.57h0a1.41,1.41,0,0,1-1.26.62,1.09,1.09,0,0,1-1.22-1.15c0-1.19,1.23-1.27,2.45-1.22.08-.75,0-1.29-.8-1.24a3,3,0,0,0-1.2.28l-.2-.49a3,3,0,0,1,1.57-.36A1.11,1.11,0,0,1,105.41,173.28Z" transform="translate(-0.08 -0.02)"/><path class="cls-5" d="M107.24,172.59a1.1,1.1,0,0,1,1.44-.49l-.14.62c-.6-.23-1.26,0-1.26.59v2.83h-.65v-4h.45l.12.49h0" transform="translate(-0.08 -0.02)"/><path class="cls-5" d="M111,175.68a1.47,1.47,0,0,0,.9-.29l.21.49a2.15,2.15,0,0,1-1.27.36c-1.27,0-1.68-.85-1.72-2.12a1.84,1.84,0,0,1,2.42-2.06,2.15,2.15,0,0,1,.49.17l-.19.56a1.84,1.84,0,0,0-.9-.23c-.77,0-1.15.52-1.15,1.56s.32,1.53,1.21,1.56" transform="translate(-0.08 -0.02)"/><path class="cls-5" d="M115,172c1.06,0,1.33.63,1.33,1.7v2.45h-.65v-2.31c0-.74-.12-1.27-.87-1.27a1.05,1.05,0,0,0-1.09.88v2.7H113v-5.67h.65v2.07h0A1.51,1.51,0,0,1,115,172" transform="translate(-0.08 -0.02)"/><path class="cls-5" d="M117.83,175a.66.66,0,0,0,.72.65,1.08,1.08,0,0,0,1.05-.64v-.67c-.77,0-1.73-.08-1.77.66m2.43-1.72a12.53,12.53,0,0,0,.06,2.88h-.48l-.17-.57h0a1.41,1.41,0,0,1-1.26.62,1.09,1.09,0,0,1-1.22-1.15c0-1.19,1.23-1.27,2.45-1.22.08-.75,0-1.29-.8-1.24a3,3,0,0,0-1.2.28l-.2-.49A3,3,0,0,1,119,172,1.11,1.11,0,0,1,120.26,173.28Z" transform="translate(-0.08 -0.02)"/><path class="cls-5" d="M122.09,172.59a1.1,1.1,0,0,1,1.44-.49l-.14.62c-.6-.23-1.26,0-1.26.59v2.83h-.65v-4h.45l.12.49h0" transform="translate(-0.08 -0.02)"/><path class="cls-5" d="M36.15,188.08c0,.84.2,1.54,1,1.54a.91.91,0,0,0,1-.85V186.7a1.91,1.91,0,0,0-.83-.15c-.83,0-1.19.6-1.18,1.54M37.43,186a3.74,3.74,0,0,1,1.38.24v4.07c0,1.07-.58,1.53-1.65,1.53a3,3,0,0,1-1.29-.22L36,191a2.65,2.65,0,0,0,1,.2c1,0,1.2-.53,1.13-1.55h0a1.15,1.15,0,0,1-1.07.49c-1.22,0-1.58-.79-1.59-2.1S36.11,186,37.43,186Z" transform="translate(-0.08 -0.02)"/><path class="cls-5" d="M40.67,186.54a1.1,1.1,0,0,1,1.44-.49l-.14.62c-.6-.23-1.26,0-1.26.59v2.83h-.65v-4h.45l.12.49h0" transform="translate(-0.08 -0.02)"/><path class="cls-5" d="M45.46,188.07c0-.85-.26-1.54-1.1-1.56s-1.1.51-1.1,1.56c0,.85.27,1.53,1.1,1.56s1.1-.51,1.1-1.56m-1.1,2.12c-1.26,0-1.76-.85-1.77-2.12s.56-2.12,1.77-2.12,1.76.85,1.77,2.12S45.57,190.2,44.36,190.2Z" transform="translate(-0.08 -0.02)"/><path class="cls-5" d="M48.41,190.2c-1,0-1.33-.65-1.32-1.7V186h.65v2.31c0,.7.1,1.28.79,1.27a1.16,1.16,0,0,0,1.09-.87V186h.65a38.93,38.93,0,0,0,.09,4h-.45l-.16-.64h0a1.45,1.45,0,0,1-1.3.74" transform="translate(-0.08 -0.02)"/><path class="cls-5" d="M54.21,188c0-.83-.23-1.47-1.05-1.47a.93.93,0,0,0-1,.87v2a1.19,1.19,0,0,0,.83.23c.84,0,1.23-.7,1.22-1.64M53,190.2a1.77,1.77,0,0,1-.85-.16v1.68h-.65V186H52l.12.49h0a1.31,1.31,0,0,1,1.16-.58c1.21,0,1.6.72,1.6,2S54.29,190.2,53,190.2Z" transform="translate(-0.08 -0.02)"/><path class="cls-5" d="M58.47,185.25a.43.43,0,0,1-.45-.43.45.45,0,0,1,.45-.45.47.47,0,0,1,.47.45.46.46,0,0,1-.47.43m-.31.8h.65v4h-.65v-4Z" transform="translate(-0.08 -0.02)"/><path class="cls-5" d="M60.64,188.09c0,.84.21,1.54,1,1.54a.93.93,0,0,0,1-.87v-2a1.23,1.23,0,0,0-.83-.21c-.85,0-1.2.58-1.19,1.55M61.81,186a2,2,0,0,1,.85.14v-1.68h.65v4.28a7.73,7.73,0,0,0,.08,1.41H63l-.16-.58h0a1.34,1.34,0,0,1-1.19.66c-1.21,0-1.59-.79-1.6-2.11S60.6,186,61.81,186Z" transform="translate(-0.08 -0.02)"/><path class="cls-5" d="M99.15,185.25a.43.43,0,0,1-.45-.43.45.45,0,0,1,.45-.45.47.47,0,0,1,.47.45.46.46,0,0,1-.47.43m-.31.8h.65v4h-.65v-4Z" transform="translate(-0.08 -0.02)"/><path class="cls-5" d="M102.79,186c1.05,0,1.34.64,1.34,1.7v2.45h-.65v-2.31c0-.76-.13-1.26-.85-1.27a1.12,1.12,0,0,0-1.1.81v2.77h-.65v-4h.45l.12.49h0a1.58,1.58,0,0,1,1.3-.59" transform="translate(-0.08 -0.02)"/><path class="cls-5" d="M106.31,190.2c-.74,0-.9-.41-.9-1.22v-2.37h-.63V186h.63v-.8l.65-.19v1h1.1v.57h-1.1v2.24c0,.48,0,.75.46.77a1.48,1.48,0,0,0,.68-.16l.15.49a2.23,2.23,0,0,1-1,.23" transform="translate(-0.08 -0.02)"/><path class="cls-5" d="M110.43,187.63c0-.75-.24-1.11-.9-1.11s-1,.37-1.11,1.11h2m-.71,2a1.61,1.61,0,0,0,1-.32l.24.47a2.32,2.32,0,0,1-1.39.42c-1.28,0-1.77-.84-1.79-2.12s.57-2.09,1.78-2.12,1.71.89,1.49,2.19h-2.6C108.41,189.08,108.78,189.63,109.72,189.63Z" transform="translate(-0.08 -0.02)"/><path class="cls-5" d="M112.44,188.08c0,.84.2,1.54,1,1.54a.91.91,0,0,0,1-.85V186.7a1.91,1.91,0,0,0-.83-.15c-.83,0-1.19.6-1.18,1.54m1.28-2.11a3.74,3.74,0,0,1,1.38.24v4.07c0,1.07-.58,1.53-1.65,1.53a3,3,0,0,1-1.29-.22l.17-.55a2.65,2.65,0,0,0,1,.2c1,0,1.2-.53,1.13-1.55h0a1.15,1.15,0,0,1-1.07.49c-1.22,0-1.58-.79-1.59-2.1S112.4,186,113.72,186Z" transform="translate(-0.08 -0.02)"/><path class="cls-5" d="M118.8,187.63c0-.75-.24-1.11-.9-1.11s-1,.37-1.11,1.11h2m-.71,2a1.61,1.61,0,0,0,1-.32l.24.47a2.32,2.32,0,0,1-1.39.42c-1.28,0-1.77-.84-1.79-2.12s.57-2.09,1.78-2.12,1.71.89,1.49,2.19h-2.6C116.79,189.08,117.15,189.63,118.09,189.63Z" transform="translate(-0.08 -0.02)"/><path class="cls-5" d="M121.06,186.54a1.1,1.1,0,0,1,1.44-.49l-.14.62c-.6-.23-1.26,0-1.26.59v2.83h-.65v-4h.45l.12.49h0" transform="translate(-0.08 -0.02)"/><rect class="cls-1" x="206.13" y="133.65" width="126" height="18"/><path class="cls-4" d="M206.22,134.79a1.14,1.14,0,0,1,1.13-1.12H331.09a1.11,1.11,0,0,1,1.13,1.13v58.72a1.11,1.11,0,0,1-1.12,1.13H207.34a1.14,1.14,0,0,1-1.12-1.12Z" transform="translate(-0.08 -0.02)"/><line class="cls-4" x1="206.13" y1="151.65" x2="332.13" y2="151.65"/><line class="cls-4" x1="269.13" y1="151.65" x2="269.13" y2="194.63"/><path class="cls-5" d="M215.59,144.87c.56.33,2.36.66,2.36-.35,0-.66-.79-.74-1.3-1a1.85,1.85,0,0,1-1.29-1.65c-.08-1.77,2.24-1.9,3.56-1.29l-.35.93c-.46-.28-2.06-.62-2.11.27.1.63.8.73,1.3,1s1.29.68,1.29,1.62c0,1.24-.83,1.73-2.07,1.76a4.22,4.22,0,0,1-1.75-.34" transform="translate(-0.08 -0.02)"/><path class="cls-5" d="M221,146.16c-1,0-1.29-.62-1.29-1.64V142h1.05v2.3c0,.58,0,.92.58.93a.85.85,0,0,0,.79-.62V142h1.05a27.26,27.26,0,0,0,.13,4h-.79l-.19-.6h0a1.49,1.49,0,0,1-1.3.71" transform="translate(-0.08 -0.02)"/><path class="cls-5" d="M225.78,145.25c.68,0,.87-.52.87-1.3s-.24-1.16-.72-1.16a.75.75,0,0,0-.75.58v1.77a1.32,1.32,0,0,0,.6.11m-.06.89a4.27,4.27,0,0,1-1.6-.28v-5.49h1.05v1.94h0a1.33,1.33,0,0,1,1-.42c1.09,0,1.5.8,1.5,2A1.94,1.94,0,0,1,225.73,146.14Z" transform="translate(-0.08 -0.02)"/><path class="cls-5" d="M229.08,141.4a.58.58,0,0,1-.66-.55.59.59,0,0,1,.66-.57.63.63,0,0,1,.69.57.62.62,0,0,1-.69.55m-1.2,5.39c.58.06.69-.32.69-.87V142h1.05v4.22a1.28,1.28,0,0,1-1.74,1.46v-.88Z" transform="translate(-0.08 -0.02)"/><path class="cls-5" d="M233,143.63c0-.54-.15-.91-.66-.91s-.79.38-.85.91H233m-.49,1.68a1.82,1.82,0,0,0,1-.31l.35.69a2.7,2.7,0,0,1-1.55.46c-1.32,0-1.88-.83-1.89-2.14s.66-2.14,1.94-2.14a1.46,1.46,0,0,1,1.62,1.64,3.93,3.93,0,0,1-.08.77H231.5C231.54,145,231.82,145.31,232.54,145.31Z" transform="translate(-0.08 -0.02)"/><path class="cls-5" d="M236.56,145.23a1.31,1.31,0,0,0,.79-.23l.24.8a2.23,2.23,0,0,1-1.3.36c-1.3,0-1.73-.84-1.77-2.14A1.88,1.88,0,0,1,237,142a2.72,2.72,0,0,1,.49.19l-.25.86a1.66,1.66,0,0,0-.79-.19c-.66,0-.9.45-.89,1.21s.26,1.18.95,1.21" transform="translate(-0.08 -0.02)"/><path class="cls-5" d="M239.45,146.16c-.79,0-1.09-.4-1.09-1.23v-2h-.56V142h.56v-.76l1.05-.3V142h1v.89h-1v1.56c0,.47,0,.79.4.79a1.14,1.14,0,0,0,.54-.13l.19.81a2.76,2.76,0,0,1-1.1.25" transform="translate(-0.08 -0.02)"/><polyline class="cls-5" points="243.2 140.26 244 140.61 241.11 147.16 240.31 146.79"/><path class="cls-5" d="M245.58,146.16c-.79,0-1.09-.4-1.09-1.23v-2h-.56V142h.56v-.76l1.05-.3V142h1v.89h-1v1.56c0,.47,0,.79.4.79a1.14,1.14,0,0,0,.54-.13l.19.81a2.76,2.76,0,0,1-1.1.25" transform="translate(-0.08 -0.02)"/><path class="cls-5" d="M249.53,143.63c0-.54-.15-.91-.66-.91s-.79.38-.85.91h1.51m-.49,1.68a1.82,1.82,0,0,0,1-.31l.35.69a2.7,2.7,0,0,1-1.55.46c-1.32,0-1.88-.83-1.89-2.14s.66-2.14,1.94-2.14a1.46,1.46,0,0,1,1.62,1.64,3.93,3.93,0,0,1-.08.77H248C248,145,248.32,145.31,249,145.31Z" transform="translate(-0.08 -0.02)"/><path class="cls-5" d="M252.07,144.76c0,.3.19.48.5.48a.88.88,0,0,0,.78-.45v-.53c-.58,0-1.24,0-1.28.49m1.21-1.78c-.31-.4-1.39-.14-1.79,0l-.25-.79a4.4,4.4,0,0,1,1.7-.32c1,0,1.47.45,1.46,1.42a9.41,9.41,0,0,0,.09,2.72h-.86l-.17-.56h0a1.34,1.34,0,0,1-1.19.62,1.12,1.12,0,0,1-1.24-1.18c0-1.15,1.13-1.33,2.36-1.3A.91.91,0,0,0,253.28,143Z" transform="translate(-0.08 -0.02)"/><path class="cls-5" d="M257.12,145.23a1.31,1.31,0,0,0,.79-.23l.24.8a2.23,2.23,0,0,1-1.3.36c-1.3,0-1.73-.84-1.77-2.14A1.88,1.88,0,0,1,257.6,142a2.72,2.72,0,0,1,.49.19l-.25.86a1.66,1.66,0,0,0-.79-.19c-.66,0-.9.45-.89,1.21s.26,1.18.95,1.21" transform="translate(-0.08 -0.02)"/><path class="cls-5" d="M261.07,141.88c1,0,1.25.64,1.25,1.64V146h-1.05v-2.3c0-.6-.09-.93-.64-.93a.84.84,0,0,0-.79.65V146h-1.05v-5.67h1.05v2.07h0a1.39,1.39,0,0,1,1.2-.57" transform="translate(-0.08 -0.02)"/><path class="cls-5" d="M265.59,143.63c0-.54-.15-.91-.66-.91s-.79.38-.85.91h1.51m-.49,1.68a1.82,1.82,0,0,0,1-.31l.35.69a2.7,2.7,0,0,1-1.55.46c-1.32,0-1.88-.83-1.89-2.14s.66-2.14,1.94-2.14a1.46,1.46,0,0,1,1.62,1.64,3.93,3.93,0,0,1-.08.77h-2.43C264.1,145,264.37,145.31,265.09,145.31Z" transform="translate(-0.08 -0.02)"/><path class="cls-5" d="M268.29,142.53a1,1,0,0,1,1.4-.53l-.14,1a.82.82,0,0,0-1.18.45V146h-1.05v-4h.82l.12.53h0" transform="translate(-0.08 -0.02)"/><path class="cls-5" d="M215.28,161.27c.48.29,1.94.58,1.9-.35,0-.74-1-.66-1.45-1a1,1,0,0,1-.5-.92c0-.79.48-1.12,1.26-1.13a2.74,2.74,0,0,1,1.25.26l-.15.53c-.42-.21-1.79-.51-1.7.32.07.67,1,.6,1.44,1a1.11,1.11,0,0,1,.51,1c0,.83-.55,1.21-1.41,1.22a2.71,2.71,0,0,1-1.33-.3" transform="translate(-0.08 -0.02)"/><path class="cls-5" d="M220.06,162.12c-1,0-1.33-.65-1.32-1.7V158h.65v2.31c0,.7.1,1.28.79,1.27a1.16,1.16,0,0,0,1.09-.87V158h.65a38.93,38.93,0,0,0,.09,4h-.45l-.16-.64h0a1.45,1.45,0,0,1-1.3.74" transform="translate(-0.08 -0.02)"/><path class="cls-5" d="M225.85,159.92c0-.81-.22-1.48-1-1.48a1,1,0,0,0-1,.87v2a1.76,1.76,0,0,0,.83.18c.85,0,1.22-.63,1.21-1.6m-1.3,2.17a3,3,0,0,1-1.38-.31v-5.44h.65v2h0a1.37,1.37,0,0,1,1.1-.49c1.17,0,1.57.79,1.57,2.06S225.84,162.08,224.55,162.09Z" transform="translate(-0.08 -0.02)"/><path class="cls-5" d="M228,157.17a.43.43,0,0,1-.45-.43.45.45,0,0,1,.45-.45.47.47,0,0,1,.47.45.46.46,0,0,1-.47.43m-1,6c.66,0,.68-.53.68-1.17v-4h.65v4.27c0,1-.32,1.6-1.33,1.48v-.55Z" transform="translate(-0.08 -0.02)"/><path class="cls-5" d="M232.17,159.55c0-.75-.24-1.11-.9-1.11s-1,.37-1.11,1.11h2m-.71,2a1.61,1.61,0,0,0,1-.32l.24.47a2.32,2.32,0,0,1-1.39.42c-1.28,0-1.77-.84-1.79-2.12s.57-2.09,1.78-2.12,1.71.89,1.49,2.19h-2.6C230.15,161,230.52,161.55,231.46,161.55Z" transform="translate(-0.08 -0.02)"/><path class="cls-5" d="M235.38,161.55a1.47,1.47,0,0,0,.9-.29l.21.49a2.15,2.15,0,0,1-1.27.36c-1.27,0-1.68-.85-1.72-2.12a1.84,1.84,0,0,1,2.42-2.06,2.15,2.15,0,0,1,.49.17l-.19.56a1.84,1.84,0,0,0-.9-.23c-.77,0-1.15.52-1.15,1.56s.32,1.53,1.21,1.56" transform="translate(-0.08 -0.02)"/><path class="cls-5" d="M238.38,162.12c-.74,0-.9-.41-.9-1.22v-2.37h-.63V158h.63v-.8l.65-.19v1h1.1v.57h-1.1v2.24c0,.48,0,.75.46.77a1.48,1.48,0,0,0,.68-.16l.15.49a2.23,2.23,0,0,1-1,.23" transform="translate(-0.08 -0.02)"/><path class="cls-5" d="M242.7,157.17a.43.43,0,0,1-.45-.43.45.45,0,0,1,.45-.45.47.47,0,0,1,.47.45.46.46,0,0,1-.47.43m-.31.8H243v4h-.65v-4Z" transform="translate(-0.08 -0.02)"/><path class="cls-5" d="M244.87,160c0,.84.21,1.54,1,1.54a.93.93,0,0,0,1-.87v-2a1.23,1.23,0,0,0-.83-.21c-.85,0-1.2.58-1.19,1.55M246,157.9a2,2,0,0,1,.85.14v-1.68h.65v4.28a7.73,7.73,0,0,0,.08,1.41h-.44l-.16-.58h0a1.34,1.34,0,0,1-1.19.66c-1.21,0-1.59-.79-1.6-2.11S244.83,157.9,246,157.9Z" transform="translate(-0.08 -0.02)"/><path class="cls-5" d="M278.84,157.17a.43.43,0,0,1-.45-.43.45.45,0,0,1,.45-.45.47.47,0,0,1,.47.45.46.46,0,0,1-.47.43m-.31.8h.65v4h-.65v-4Z" transform="translate(-0.08 -0.02)"/><path class="cls-5" d="M282.48,157.87c1.05,0,1.34.64,1.34,1.7V162h-.65v-2.31c0-.76-.13-1.26-.85-1.27a1.12,1.12,0,0,0-1.1.81V162h-.65v-4H281l.12.49h0a1.58,1.58,0,0,1,1.3-.59" transform="translate(-0.08 -0.02)"/><path class="cls-5" d="M286,162.12c-.74,0-.9-.41-.9-1.22v-2.37h-.63V158h.63v-.8l.65-.19v1h1.1v.57h-1.1v2.24c0,.48,0,.75.46.77a1.48,1.48,0,0,0,.68-.16l.15.49a2.23,2.23,0,0,1-1,.23" transform="translate(-0.08 -0.02)"/><path class="cls-5" d="M290.11,159.55c0-.75-.24-1.11-.9-1.11s-1,.37-1.11,1.11h2m-.71,2a1.61,1.61,0,0,0,1-.32l.24.47a2.32,2.32,0,0,1-1.39.42c-1.28,0-1.77-.84-1.79-2.12s.57-2.09,1.78-2.12,1.71.89,1.49,2.19h-2.6C288.1,161,288.46,161.55,289.4,161.55Z" transform="translate(-0.08 -0.02)"/><path class="cls-5" d="M292.12,160c0,.84.2,1.54,1,1.54a.91.91,0,0,0,1-.85v-2.07a1.9,1.9,0,0,0-.83-.15c-.83,0-1.19.6-1.18,1.54m1.28-2.11a3.74,3.74,0,0,1,1.38.24v4.07c0,1.07-.58,1.53-1.65,1.53a3,3,0,0,1-1.29-.22L292,163a2.65,2.65,0,0,0,1,.2c1,0,1.2-.53,1.13-1.55h0a1.15,1.15,0,0,1-1.07.49c-1.22,0-1.58-.79-1.59-2.1S292.08,157.9,293.4,157.9Z" transform="translate(-0.08 -0.02)"/><path class="cls-5" d="M298.49,159.55c0-.75-.24-1.11-.9-1.11s-1,.37-1.11,1.11h2m-.71,2a1.61,1.61,0,0,0,1-.32l.24.47a2.32,2.32,0,0,1-1.39.42c-1.28,0-1.77-.84-1.79-2.12s.57-2.09,1.78-2.12,1.71.89,1.49,2.19h-2.6C296.47,161,296.84,161.55,297.78,161.55Z" transform="translate(-0.08 -0.02)"/><path class="cls-5" d="M300.75,158.46a1.1,1.1,0,0,1,1.44-.49l-.14.62c-.6-.23-1.26,0-1.26.59V162h-.65v-4h.45l.12.49h0" transform="translate(-0.08 -0.02)"/><path class="cls-5" d="M216.39,176.07c-.74,0-.9-.41-.9-1.22v-2.37h-.63v-.57h.63v-.8l.65-.19v1h1.1v.57h-1.1v2.24c0,.48,0,.75.46.77a1.48,1.48,0,0,0,.68-.16l.15.49a2.23,2.23,0,0,1-1,.23" transform="translate(-0.08 -0.02)"/><path class="cls-5" d="M220.51,173.5c0-.75-.24-1.11-.9-1.11s-1,.37-1.11,1.11h2m-.71,2a1.61,1.61,0,0,0,1-.32l.24.47a2.32,2.32,0,0,1-1.39.42c-1.28,0-1.77-.84-1.79-2.12s.57-2.09,1.78-2.12,1.71.89,1.49,2.19h-2.6C218.5,174.95,218.86,175.5,219.8,175.5Z" transform="translate(-0.08 -0.02)"/><path class="cls-5" d="M222.53,174.82a.66.66,0,0,0,.72.65,1.08,1.08,0,0,0,1.05-.64v-.67c-.77,0-1.73-.08-1.77.66M225,173.1A12.53,12.53,0,0,0,225,176h-.48l-.17-.57h0a1.41,1.41,0,0,1-1.26.62,1.09,1.09,0,0,1-1.22-1.15c0-1.19,1.23-1.27,2.45-1.22.08-.75,0-1.29-.8-1.24a3,3,0,0,0-1.2.28l-.2-.49a3,3,0,0,1,1.57-.36A1.11,1.11,0,0,1,225,173.1Z" transform="translate(-0.08 -0.02)"/><path class="cls-5" d="M227.84,175.5a1.47,1.47,0,0,0,.9-.29l.21.49a2.15,2.15,0,0,1-1.27.36c-1.27,0-1.68-.85-1.72-2.12a1.84,1.84,0,0,1,2.42-2.06,2.15,2.15,0,0,1,.49.17l-.19.56a1.84,1.84,0,0,0-.9-.23c-.77,0-1.15.52-1.15,1.56s.32,1.53,1.21,1.56" transform="translate(-0.08 -0.02)"/><path class="cls-5" d="M231.76,171.82c1.06,0,1.33.63,1.33,1.7V176h-.65v-2.31c0-.74-.12-1.27-.87-1.27a1.05,1.05,0,0,0-1.09.88V176h-.65V170.3h.65v2.07h0a1.51,1.51,0,0,1,1.24-.55" transform="translate(-0.08 -0.02)"/><path class="cls-5" d="M236.73,173.5c0-.75-.24-1.11-.9-1.11s-1,.37-1.11,1.11h2m-.71,2a1.61,1.61,0,0,0,1-.32l.24.47a2.32,2.32,0,0,1-1.39.42c-1.28,0-1.77-.84-1.79-2.12s.57-2.09,1.78-2.12,1.71.89,1.49,2.19h-2.6C234.71,174.95,235.08,175.5,236,175.5Z" transform="translate(-0.08 -0.02)"/><path class="cls-5" d="M239,172.41a1.1,1.1,0,0,1,1.44-.49l-.14.62c-.6-.23-1.26,0-1.26.59V176h-.65v-4h.45l.12.49h0" transform="translate(-0.08 -0.02)"/><path class="cls-5" d="M243.74,171.12a.43.43,0,0,1-.45-.43.45.45,0,0,1,.45-.45.47.47,0,0,1,.47.45.46.46,0,0,1-.47.43m-.31.8h.65v4h-.65v-4Z" transform="translate(-0.08 -0.02)"/><path class="cls-5" d="M245.91,174c0,.84.21,1.54,1,1.54a.93.93,0,0,0,1-.87v-2a1.23,1.23,0,0,0-.83-.21c-.85,0-1.2.58-1.19,1.55m1.17-2.11a2,2,0,0,1,.85.14V170.3h.65v4.28a7.73,7.73,0,0,0,.08,1.41h-.44l-.16-.58h0a1.34,1.34,0,0,1-1.19.66c-1.21,0-1.59-.79-1.6-2.11S245.86,171.85,247.08,171.85Z" transform="translate(-0.08 -0.02)"/><path class="cls-5" d="M278.84,171.12a.43.43,0,0,1-.45-.43.45.45,0,0,1,.45-.45.47.47,0,0,1,.47.45.46.46,0,0,1-.47.43m-.31.8h.65v4h-.65v-4Z" transform="translate(-0.08 -0.02)"/><path class="cls-5" d="M282.48,171.82c1.05,0,1.34.64,1.34,1.7V176h-.65v-2.31c0-.76-.13-1.26-.85-1.27a1.12,1.12,0,0,0-1.1.81V176h-.65v-4H281l.12.49h0a1.58,1.58,0,0,1,1.3-.59" transform="translate(-0.08 -0.02)"/><path class="cls-5" d="M286,176.07c-.74,0-.9-.41-.9-1.22v-2.37h-.63v-.57h.63v-.8l.65-.19v1h1.1v.57h-1.1v2.24c0,.48,0,.75.46.77a1.48,1.48,0,0,0,.68-.16l.15.49a2.23,2.23,0,0,1-1,.23" transform="translate(-0.08 -0.02)"/><path class="cls-5" d="M290.11,173.5c0-.75-.24-1.11-.9-1.11s-1,.37-1.11,1.11h2m-.71,2a1.61,1.61,0,0,0,1-.32l.24.47a2.32,2.32,0,0,1-1.39.42c-1.28,0-1.77-.84-1.79-2.12s.57-2.09,1.78-2.12,1.71.89,1.49,2.19h-2.6C288.1,174.95,288.46,175.5,289.4,175.5Z" transform="translate(-0.08 -0.02)"/><path class="cls-5" d="M292.12,174c0,.84.2,1.54,1,1.54a.91.91,0,0,0,1-.85v-2.07a1.9,1.9,0,0,0-.83-.15c-.83,0-1.19.6-1.18,1.54m1.28-2.11a3.74,3.74,0,0,1,1.38.24v4.07c0,1.07-.58,1.53-1.65,1.53a3,3,0,0,1-1.29-.22l.17-.55a2.65,2.65,0,0,0,1,.2c1,0,1.2-.53,1.13-1.55h0a1.15,1.15,0,0,1-1.07.49c-1.22,0-1.58-.79-1.59-2.1S292.08,171.85,293.4,171.85Z" transform="translate(-0.08 -0.02)"/><path class="cls-5" d="M298.49,173.5c0-.75-.24-1.11-.9-1.11s-1,.37-1.11,1.11h2m-.71,2a1.61,1.61,0,0,0,1-.32l.24.47a2.32,2.32,0,0,1-1.39.42c-1.28,0-1.77-.84-1.79-2.12s.57-2.09,1.78-2.12,1.71.89,1.49,2.19h-2.6C296.47,174.95,296.84,175.5,297.78,175.5Z" transform="translate(-0.08 -0.02)"/><path class="cls-5" d="M300.75,172.41a1.1,1.1,0,0,1,1.44-.49l-.14.62c-.6-.23-1.26,0-1.26.59V176h-.65v-4h.45l.12.49h0" transform="translate(-0.08 -0.02)"/><path class="cls-5" d="M215.84,187.9c0,.84.2,1.54,1,1.54a.91.91,0,0,0,1-.85v-2.07a1.91,1.91,0,0,0-.83-.15c-.83,0-1.19.6-1.18,1.54m1.28-2.11a3.74,3.74,0,0,1,1.38.24v4.07c0,1.07-.58,1.53-1.65,1.53a3,3,0,0,1-1.29-.22l.17-.55a2.65,2.65,0,0,0,1,.2c1,0,1.2-.53,1.13-1.55h0a1.15,1.15,0,0,1-1.07.49c-1.22,0-1.58-.79-1.59-2.1S215.8,185.8,217.12,185.8Z" transform="translate(-0.08 -0.02)"/><path class="cls-5" d="M220.35,186.36a1.1,1.1,0,0,1,1.44-.49l-.14.62c-.6-.23-1.26,0-1.26.59v2.83h-.65v-4h.45l.12.49h0" transform="translate(-0.08 -0.02)"/><path class="cls-5" d="M225.15,187.89c0-.85-.26-1.54-1.1-1.56s-1.1.51-1.1,1.56c0,.85.27,1.53,1.1,1.56s1.1-.51,1.1-1.56M224,190c-1.26,0-1.76-.85-1.77-2.12s.56-2.12,1.77-2.12,1.76.85,1.77,2.12S225.26,190,224,190Z" transform="translate(-0.08 -0.02)"/><path class="cls-5" d="M228.09,190c-1,0-1.33-.65-1.32-1.7v-2.45h.65v2.31c0,.7.1,1.28.79,1.27a1.16,1.16,0,0,0,1.09-.87v-2.71H230a38.93,38.93,0,0,0,.09,4h-.45l-.16-.64h0a1.45,1.45,0,0,1-1.3.74" transform="translate(-0.08 -0.02)"/><path class="cls-5" d="M233.89,187.8c0-.83-.23-1.47-1.05-1.47a.93.93,0,0,0-1,.87v2a1.19,1.19,0,0,0,.83.23c.84,0,1.23-.7,1.22-1.64M232.7,190a1.77,1.77,0,0,1-.85-.16v1.68h-.65v-5.67h.45l.12.49h0a1.31,1.31,0,0,1,1.16-.58c1.21,0,1.6.72,1.6,2S234,190,232.7,190Z" transform="translate(-0.08 -0.02)"/><path class="cls-5" d="M238.16,185.07a.43.43,0,0,1-.45-.43.45.45,0,0,1,.45-.45.47.47,0,0,1,.47.45.46.46,0,0,1-.47.43m-.31.8h.65v4h-.65v-4Z" transform="translate(-0.08 -0.02)"/><path class="cls-5" d="M240.33,187.91c0,.84.21,1.54,1,1.54a.93.93,0,0,0,1-.87v-2a1.23,1.23,0,0,0-.83-.21c-.85,0-1.2.58-1.19,1.55m1.17-2.11a2,2,0,0,1,.85.14v-1.68H243v4.28a7.73,7.73,0,0,0,.08,1.41h-.44l-.16-.58h0a1.34,1.34,0,0,1-1.19.66c-1.21,0-1.59-.79-1.6-2.11S240.28,185.8,241.5,185.8Z" transform="translate(-0.08 -0.02)"/><path class="cls-5" d="M278.84,185.07a.43.43,0,0,1-.45-.43.45.45,0,0,1,.45-.45.47.47,0,0,1,.47.45.46.46,0,0,1-.47.43m-.31.8h.65v4h-.65v-4Z" transform="translate(-0.08 -0.02)"/><path class="cls-5" d="M282.48,185.77c1.05,0,1.34.64,1.34,1.7v2.45h-.65v-2.31c0-.76-.13-1.26-.85-1.27a1.12,1.12,0,0,0-1.1.81v2.77h-.65v-4H281l.12.49h0a1.58,1.58,0,0,1,1.3-.59" transform="translate(-0.08 -0.02)"/><path class="cls-5" d="M286,190c-.74,0-.9-.41-.9-1.22v-2.37h-.63v-.57h.63v-.8l.65-.19v1h1.1v.57h-1.1v2.24c0,.48,0,.75.46.77a1.48,1.48,0,0,0,.68-.16l.15.49a2.23,2.23,0,0,1-1,.23" transform="translate(-0.08 -0.02)"/><path class="cls-5" d="M290.11,187.45c0-.75-.24-1.11-.9-1.11s-1,.37-1.11,1.11h2m-.71,2a1.61,1.61,0,0,0,1-.32l.24.47a2.32,2.32,0,0,1-1.39.42c-1.28,0-1.77-.84-1.79-2.12s.57-2.09,1.78-2.12,1.71.89,1.49,2.19h-2.6C288.1,188.9,288.46,189.45,289.4,189.45Z" transform="translate(-0.08 -0.02)"/><path class="cls-5" d="M292.12,187.9c0,.84.2,1.54,1,1.54a.91.91,0,0,0,1-.85v-2.07a1.9,1.9,0,0,0-.83-.15c-.83,0-1.19.6-1.18,1.54m1.28-2.11a3.74,3.74,0,0,1,1.38.24v4.07c0,1.07-.58,1.53-1.65,1.53a3,3,0,0,1-1.29-.22l.17-.55a2.65,2.65,0,0,0,1,.2c1,0,1.2-.53,1.13-1.55h0A1.15,1.15,0,0,1,293,190c-1.22,0-1.58-.79-1.59-2.1S292.08,185.8,293.4,185.8Z" transform="translate(-0.08 -0.02)"/><path class="cls-5" d="M298.49,187.45c0-.75-.24-1.11-.9-1.11s-1,.37-1.11,1.11h2m-.71,2a1.61,1.61,0,0,0,1-.32l.24.47a2.32,2.32,0,0,1-1.39.42c-1.28,0-1.77-.84-1.79-2.12s.57-2.09,1.78-2.12,1.71.89,1.49,2.19h-2.6C296.47,188.9,296.84,189.45,297.78,189.45Z" transform="translate(-0.08 -0.02)"/><path class="cls-5" d="M300.75,186.36a1.1,1.1,0,0,1,1.44-.49l-.14.62c-.6-.23-1.26,0-1.26.59v2.83h-.65v-4h.45l.12.49h0" transform="translate(-0.08 -0.02)"/><rect class="cls-1" x="205.86" y="55.94" width="126" height="18"/><path class="cls-4" d="M205.95,57.08A1.11,1.11,0,0,1,207.07,56H330.82a1.14,1.14,0,0,1,1.13,1.13v44.77a1.14,1.14,0,0,1-1.12,1.13H207.07a1.11,1.11,0,0,1-1.12-1.12Z" transform="translate(-0.08 -0.02)"/><line class="cls-4" x1="205.86" y1="73.94" x2="331.86" y2="73.94"/><line class="cls-4" x1="268.86" y1="73.94" x2="268.86" y2="102.96"/><path class="cls-5" d="M215.28,67.2c.56.33,2.36.66,2.36-.35,0-.66-.79-.74-1.3-1a1.85,1.85,0,0,1-1.29-1.65c-.08-1.77,2.24-1.9,3.56-1.29l-.35.93c-.46-.28-2.06-.62-2.11.27.1.63.8.73,1.3,1s1.29.68,1.29,1.62c0,1.24-.83,1.73-2.07,1.76a4.22,4.22,0,0,1-1.75-.34" transform="translate(-0.08 -0.02)"/><path class="cls-5" d="M220.71,68.49c-1,0-1.29-.62-1.29-1.64V64.32h1.05v2.3c0,.58,0,.92.58.93a.85.85,0,0,0,.79-.62V64.32h1.05a27.26,27.26,0,0,0,.13,4h-.79l-.19-.6h0a1.49,1.49,0,0,1-1.3.71" transform="translate(-0.08 -0.02)"/><path class="cls-5" d="M225.47,67.58c.68,0,.87-.52.87-1.3s-.24-1.16-.72-1.16a.75.75,0,0,0-.75.58v1.77a1.32,1.32,0,0,0,.6.11m-.06.89a4.27,4.27,0,0,1-1.6-.28V62.7h1.05v1.94h0a1.33,1.33,0,0,1,1-.42c1.09,0,1.5.8,1.5,2A1.94,1.94,0,0,1,225.41,68.47Z" transform="translate(-0.08 -0.02)"/><path class="cls-5" d="M228.77,63.73a.58.58,0,0,1-.66-.55.59.59,0,0,1,.66-.57.63.63,0,0,1,.69.57.62.62,0,0,1-.69.55m-1.2,5.39c.58.06.69-.32.69-.87V64.32h1.05v4.22A1.28,1.28,0,0,1,227.57,70v-.88Z" transform="translate(-0.08 -0.02)"/><path class="cls-5" d="M232.72,66c0-.54-.15-.91-.66-.91s-.79.38-.85.91h1.51m-.49,1.68a1.82,1.82,0,0,0,1-.31l.35.69a2.7,2.7,0,0,1-1.55.46c-1.32,0-1.88-.83-1.89-2.14s.66-2.14,1.94-2.14a1.46,1.46,0,0,1,1.62,1.64,3.93,3.93,0,0,1-.08.77h-2.43C231.23,67.3,231.5,67.64,232.23,67.64Z" transform="translate(-0.08 -0.02)"/><path class="cls-5" d="M236.24,67.56a1.31,1.31,0,0,0,.79-.23l.24.8a2.23,2.23,0,0,1-1.3.36c-1.3,0-1.73-.84-1.77-2.14a1.88,1.88,0,0,1,2.52-2.07,2.72,2.72,0,0,1,.49.19l-.25.86a1.66,1.66,0,0,0-.79-.19c-.66,0-.9.45-.89,1.21s.26,1.18.95,1.21" transform="translate(-0.08 -0.02)"/><path class="cls-5" d="M239.13,68.49c-.79,0-1.09-.4-1.09-1.23v-2h-.56v-.89H238v-.76l1.05-.3v1.06h1v.89h-1v1.56c0,.47,0,.79.4.79a1.14,1.14,0,0,0,.54-.13l.19.81a2.76,2.76,0,0,1-1.1.25" transform="translate(-0.08 -0.02)"/><path class="cls-5" d="M241.9,67.64c.43.07.71-.43.38-.65-.65-.43-1.73-.45-1.71-1.56,0-.83.53-1.23,1.39-1.23a3.19,3.19,0,0,1,1.42.32l-.23.76a3.43,3.43,0,0,0-1-.23c-.44,0-.63.41-.33.6.66.4,1.73.43,1.71,1.51,0,.89-.61,1.32-1.57,1.32a3,3,0,0,1-1.42-.36l.29-.79a2.43,2.43,0,0,0,1.13.31" transform="translate(-0.08 -0.02)"/><path class="cls-5" d="M215,83.6c.48.29,1.94.58,1.9-.35,0-.74-1-.66-1.45-1a1,1,0,0,1-.5-.92c0-.79.48-1.12,1.26-1.13a2.74,2.74,0,0,1,1.25.26l-.15.53c-.42-.21-1.79-.51-1.7.32.07.67,1,.6,1.44,1a1.11,1.11,0,0,1,.51,1c0,.83-.55,1.21-1.41,1.22a2.71,2.71,0,0,1-1.33-.3" transform="translate(-0.08 -0.02)"/><path class="cls-5" d="M219.74,84.45c-1,0-1.33-.65-1.32-1.7V80.3h.65v2.31c0,.7.1,1.28.79,1.27A1.16,1.16,0,0,0,221,83V80.3h.65a38.93,38.93,0,0,0,.09,4h-.45l-.16-.64h0a1.45,1.45,0,0,1-1.3.74" transform="translate(-0.08 -0.02)"/><path class="cls-5" d="M225.54,82.25c0-.81-.22-1.48-1-1.48a1,1,0,0,0-1,.87v2a1.76,1.76,0,0,0,.83.18c.85,0,1.22-.63,1.21-1.6m-1.3,2.17a3,3,0,0,1-1.38-.31V78.68h.65v2h0a1.37,1.37,0,0,1,1.1-.49c1.17,0,1.57.79,1.57,2.06S225.53,84.41,224.23,84.42Z" transform="translate(-0.08 -0.02)"/><path class="cls-5" d="M227.67,79.5a.43.43,0,0,1-.45-.43.45.45,0,0,1,.45-.45.47.47,0,0,1,.47.45.46.46,0,0,1-.47.43m-1,6c.66,0,.68-.53.68-1.17v-4H228v4.27c0,1-.32,1.6-1.33,1.48V85.5Z" transform="translate(-0.08 -0.02)"/><path class="cls-5" d="M231.85,81.88c0-.75-.24-1.11-.9-1.11s-1,.37-1.11,1.11h2m-.71,2a1.61,1.61,0,0,0,1-.32l.24.47a2.32,2.32,0,0,1-1.39.42c-1.28,0-1.77-.84-1.79-2.12s.57-2.09,1.78-2.12,1.71.89,1.49,2.19h-2.6C229.84,83.33,230.2,83.88,231.14,83.88Z" transform="translate(-0.08 -0.02)"/><path class="cls-5" d="M235.07,83.88a1.47,1.47,0,0,0,.9-.29l.21.49a2.15,2.15,0,0,1-1.27.36c-1.27,0-1.68-.85-1.72-2.12a1.84,1.84,0,0,1,2.42-2.06,2.15,2.15,0,0,1,.49.17l-.19.56a1.84,1.84,0,0,0-.9-.23c-.77,0-1.15.52-1.15,1.56s.32,1.53,1.21,1.56" transform="translate(-0.08 -0.02)"/><path class="cls-5" d="M238.07,84.45c-.74,0-.9-.41-.9-1.22V80.87h-.63V80.3h.63v-.8l.65-.19v1h1.1v.57h-1.1v2.24c0,.48,0,.75.46.77a1.48,1.48,0,0,0,.68-.16l.15.49a2.23,2.23,0,0,1-1,.23" transform="translate(-0.08 -0.02)"/><path class="cls-5" d="M242.39,79.5a.43.43,0,0,1-.45-.43.45.45,0,0,1,.45-.45.47.47,0,0,1,.47.45.46.46,0,0,1-.47.43m-.31.8h.65v4h-.65v-4Z" transform="translate(-0.08 -0.02)"/><path class="cls-5" d="M244.56,82.34c0,.84.21,1.54,1,1.54a.93.93,0,0,0,1-.87V81a1.23,1.23,0,0,0-.83-.21c-.85,0-1.2.58-1.19,1.55m1.17-2.11a2,2,0,0,1,.85.14V78.68h.65V83a7.73,7.73,0,0,0,.08,1.41h-.44l-.16-.58h0a1.34,1.34,0,0,1-1.19.66c-1.21,0-1.59-.79-1.6-2.11S244.51,80.23,245.73,80.23Z" transform="translate(-0.08 -0.02)"/><path class="cls-5" d="M278.52,79.5a.43.43,0,0,1-.45-.43.45.45,0,0,1,.45-.45.47.47,0,0,1,.47.45.46.46,0,0,1-.47.43m-.31.8h.65v4h-.65v-4Z" transform="translate(-0.08 -0.02)"/><path class="cls-5" d="M282.16,80.2c1.05,0,1.34.64,1.34,1.7v2.45h-.65V82c0-.76-.13-1.26-.85-1.27a1.12,1.12,0,0,0-1.1.81v2.77h-.65v-4h.45l.12.49h0a1.58,1.58,0,0,1,1.3-.59" transform="translate(-0.08 -0.02)"/><path class="cls-5" d="M285.68,84.45c-.74,0-.9-.41-.9-1.22V80.87h-.63V80.3h.63v-.8l.65-.19v1h1.1v.57h-1.1v2.24c0,.48,0,.75.46.77a1.48,1.48,0,0,0,.68-.16l.15.49a2.23,2.23,0,0,1-1,.23" transform="translate(-0.08 -0.02)"/><path class="cls-5" d="M289.8,81.88c0-.75-.24-1.11-.9-1.11s-1,.37-1.11,1.11h2m-.71,2a1.61,1.61,0,0,0,1-.32l.24.47a2.32,2.32,0,0,1-1.39.42c-1.28,0-1.77-.84-1.79-2.12s.57-2.09,1.78-2.12,1.71.89,1.49,2.19h-2.6C287.78,83.33,288.15,83.88,289.09,83.88Z" transform="translate(-0.08 -0.02)"/><path class="cls-5" d="M291.81,82.33c0,.84.2,1.54,1,1.54a.91.91,0,0,0,1-.85V80.95a1.9,1.9,0,0,0-.83-.15c-.83,0-1.19.6-1.18,1.54m1.28-2.11a3.74,3.74,0,0,1,1.38.24v4.07c0,1.07-.58,1.53-1.65,1.53a3,3,0,0,1-1.29-.22l.17-.55a2.65,2.65,0,0,0,1,.2c1,0,1.2-.53,1.13-1.55h0a1.15,1.15,0,0,1-1.07.49c-1.22,0-1.58-.79-1.59-2.1S291.77,80.23,293.09,80.23Z" transform="translate(-0.08 -0.02)"/><path class="cls-5" d="M298.17,81.88c0-.75-.24-1.11-.9-1.11s-1,.37-1.11,1.11h2m-.71,2a1.61,1.61,0,0,0,1-.32l.24.47a2.32,2.32,0,0,1-1.39.42c-1.28,0-1.77-.84-1.79-2.12s.57-2.09,1.78-2.12,1.71.89,1.49,2.19h-2.6C296.16,83.33,296.52,83.88,297.46,83.88Z" transform="translate(-0.08 -0.02)"/><path class="cls-5" d="M300.43,80.79a1.1,1.1,0,0,1,1.44-.49l-.14.62c-.6-.23-1.26,0-1.26.59v2.83h-.65v-4h.45l.12.49h0" transform="translate(-0.08 -0.02)"/><path class="cls-5" d="M216.07,98.4c-.74,0-.9-.41-.9-1.22V94.82h-.63v-.57h.63v-.8l.65-.19v1h1.1v.57h-1.1v2.24c0,.48,0,.75.46.77a1.48,1.48,0,0,0,.68-.16l.15.49a2.23,2.23,0,0,1-1,.23" transform="translate(-0.08 -0.02)"/><path class="cls-5" d="M218.27,93.45a.43.43,0,0,1-.45-.43.45.45,0,0,1,.45-.45.47.47,0,0,1,.47.45.46.46,0,0,1-.47.43m-.31.8h.65v4H218v-4Z" transform="translate(-0.08 -0.02)"/><path class="cls-5" d="M221,98.4c-.74,0-.9-.41-.9-1.22V94.82h-.63v-.57h.63v-.8l.65-.19v1h1.1v.57h-1.1v2.24c0,.48,0,.75.46.77a1.48,1.48,0,0,0,.68-.16l.15.49a2.23,2.23,0,0,1-1,.23" transform="translate(-0.08 -0.02)"/><path class="cls-5" d="M223.65,98.4a.79.79,0,0,1-.83-.91V92.63h.65V97.3c-.08.58.48.6.87.44l.07.51a2.12,2.12,0,0,1-.76.15" transform="translate(-0.08 -0.02)"/><path class="cls-5" d="M227.57,95.83c0-.75-.24-1.11-.9-1.11s-1,.37-1.11,1.11h2m-.71,2a1.61,1.61,0,0,0,1-.32l.24.47a2.32,2.32,0,0,1-1.39.42c-1.28,0-1.77-.84-1.79-2.12s.57-2.09,1.78-2.12,1.71.89,1.49,2.19h-2.6C225.55,97.28,225.92,97.83,226.86,97.83Z" transform="translate(-0.08 -0.02)"/><path class="cls-5" d="M278.27,94.25a32.84,32.84,0,0,1,1.21,3.14,25.61,25.61,0,0,1,1.11-3.14h.7l-1.73,4.14h-.28l-1.76-4.14h.75" transform="translate(-0.08 -0.02)"/><path class="cls-5" d="M282.35,97.15a.66.66,0,0,0,.72.65,1.08,1.08,0,0,0,1.05-.64v-.67c-.77,0-1.73-.08-1.77.66m2.43-1.72a12.53,12.53,0,0,0,.06,2.88h-.48l-.17-.57h0a1.41,1.41,0,0,1-1.26.62,1.09,1.09,0,0,1-1.21-1.15c0-1.19,1.23-1.27,2.45-1.22.08-.75,0-1.29-.8-1.24a3,3,0,0,0-1.2.28l-.2-.49a3,3,0,0,1,1.57-.36A1.11,1.11,0,0,1,284.78,95.43Z" transform="translate(-0.08 -0.02)"/><path class="cls-5" d="M286.61,94.74a1.1,1.1,0,0,1,1.44-.49l-.14.62c-.6-.23-1.26,0-1.26.59V98.3H286v-4h.45l.12.49h0" transform="translate(-0.08 -0.02)"/><path class="cls-5" d="M290.41,97.83a1.47,1.47,0,0,0,.9-.29l.21.49a2.15,2.15,0,0,1-1.27.36c-1.27,0-1.68-.85-1.72-2.12a1.84,1.84,0,0,1,2.42-2.06,2.15,2.15,0,0,1,.49.17l-.19.56a1.84,1.84,0,0,0-.9-.23c-.77,0-1.15.52-1.15,1.56s.32,1.53,1.21,1.56" transform="translate(-0.08 -0.02)"/><path class="cls-5" d="M294.33,94.15c1.06,0,1.33.63,1.33,1.7V98.3H295V96c0-.74-.12-1.27-.87-1.27a1.05,1.05,0,0,0-1.09.88v2.7h-.65V92.63h.65V94.7h0a1.51,1.51,0,0,1,1.24-.55" transform="translate(-0.08 -0.02)"/><path class="cls-5" d="M297.2,97.15a.66.66,0,0,0,.72.65,1.08,1.08,0,0,0,1.05-.64v-.67c-.77,0-1.73-.08-1.77.66m2.43-1.72a12.53,12.53,0,0,0,.06,2.88h-.48l-.17-.57h0a1.41,1.41,0,0,1-1.26.62,1.09,1.09,0,0,1-1.21-1.15c0-1.19,1.23-1.27,2.45-1.22.08-.75,0-1.29-.8-1.24A3,3,0,0,0,297,95l-.2-.49a3,3,0,0,1,1.57-.36A1.11,1.11,0,0,1,299.63,95.43Z" transform="translate(-0.08 -0.02)"/><path class="cls-5" d="M301.46,94.74a1.1,1.1,0,0,1,1.44-.49l-.14.62c-.6-.23-1.26,0-1.26.59V98.3h-.65v-4h.45l.12.49h0" transform="translate(-0.08 -0.02)"/><line class="cls-4" x1="26.45" y1="243.45" x2="152.45" y2="243.45"/><line class="cls-4" x1="89.45" y1="243.45" x2="89.45" y2="272.47"/><path class="cls-5" d="M38.29,237a1.26,1.26,0,0,0,.75-.21v-1.07l-1.22-.13v-.67h2.11v2.53a2.72,2.72,0,0,1-1.75.54c-1.76,0-2.53-1.14-2.54-2.95,0-2.11,1.33-3.23,3.5-2.88a3.67,3.67,0,0,1,.58.15l-.23.93A2.82,2.82,0,0,0,38.4,233c-1.15,0-1.6.78-1.6,2s.41,2,1.48,2" transform="translate(-0.08 -0.02)"/><path class="cls-5" d="M41.7,234.33a1,1,0,0,1,1.4-.53l-.14,1a.82.82,0,0,0-1.18.45v2.62H40.73v-4h.82l.12.53h0" transform="translate(-0.08 -0.02)"/><path class="cls-5" d="M45.29,234.57c-.63,0-.84.49-.83,1.25s.17,1.25.83,1.25.82-.5.82-1.25-.17-1.25-.82-1.25m0,3.39c-1.31,0-1.89-.83-1.91-2.14s.66-2.14,1.91-2.14,1.89.83,1.9,2.14S46.55,238,45.29,238Z" transform="translate(-0.08 -0.02)"/><path class="cls-5" d="M49.17,238c-1,0-1.29-.62-1.29-1.64v-2.52h1.05v2.3c0,.58,0,.92.58.93a.85.85,0,0,0,.79-.62v-2.62h1.05a27.26,27.26,0,0,0,.13,4h-.79l-.19-.6h0a1.49,1.49,0,0,1-1.3.71" transform="translate(-0.08 -0.02)"/><path class="cls-5" d="M54.84,235.69c0-.64-.16-1.12-.75-1.12s-.62.24-.75.62v1.68a.83.83,0,0,0,.6.19c.73,0,.91-.53.91-1.38M54.07,238a1.42,1.42,0,0,1-.74-.15v1.66H52.28v-5.67H53l.12.49h0a1.3,1.3,0,0,1,1.2-.6c1.15,0,1.52.75,1.52,2S55.37,238,54.07,238Z" transform="translate(-0.08 -0.02)"/><path class="cls-5" d="M57.81,237.11c.43.07.71-.43.38-.65-.65-.43-1.73-.45-1.71-1.56,0-.83.53-1.23,1.39-1.23a3.19,3.19,0,0,1,1.42.32l-.23.76a3.43,3.43,0,0,0-1-.23c-.44,0-.63.41-.33.6.66.41,1.73.43,1.71,1.51,0,.89-.61,1.32-1.57,1.32a3,3,0,0,1-1.42-.36l.29-.79a2.43,2.43,0,0,0,1.13.31" transform="translate(-0.08 -0.02)"/><path class="cls-5" d="M36.15,251.8c0,.84.2,1.54,1,1.54a.91.91,0,0,0,1-.85v-2.07a1.91,1.91,0,0,0-.83-.15c-.83,0-1.19.6-1.18,1.54m1.28-2.11a3.74,3.74,0,0,1,1.38.24V254c0,1.07-.58,1.53-1.65,1.53a3,3,0,0,1-1.29-.22l.17-.55a2.65,2.65,0,0,0,1,.2c1,0,1.2-.53,1.13-1.55h0a1.15,1.15,0,0,1-1.07.49c-1.22,0-1.58-.79-1.59-2.1S36.11,249.7,37.43,249.7Z" transform="translate(-0.08 -0.02)"/><path class="cls-5" d="M40.67,250.26a1.1,1.1,0,0,1,1.44-.49l-.14.62c-.6-.23-1.26,0-1.26.59v2.83h-.65v-4h.45l.12.49h0" transform="translate(-0.08 -0.02)"/><path class="cls-5" d="M45.46,251.79c0-.85-.26-1.54-1.1-1.56s-1.1.51-1.1,1.56c0,.85.27,1.53,1.1,1.56s1.1-.51,1.1-1.56m-1.1,2.12c-1.26,0-1.76-.85-1.77-2.12s.56-2.12,1.77-2.12,1.76.85,1.77,2.12S45.57,253.92,44.36,253.92Z" transform="translate(-0.08 -0.02)"/><path class="cls-5" d="M48.41,253.92c-1,0-1.33-.65-1.32-1.7v-2.45h.65v2.31c0,.7.1,1.28.79,1.27a1.16,1.16,0,0,0,1.09-.87v-2.71h.65a38.93,38.93,0,0,0,.09,4h-.45l-.16-.64h0a1.45,1.45,0,0,1-1.3.74" transform="translate(-0.08 -0.02)"/><path class="cls-5" d="M54.21,251.7c0-.83-.23-1.47-1.05-1.47a.93.93,0,0,0-1,.87v2a1.19,1.19,0,0,0,.83.23c.84,0,1.23-.7,1.22-1.64M53,253.92a1.77,1.77,0,0,1-.85-.16v1.68h-.65v-5.67H52l.12.49h0a1.31,1.31,0,0,1,1.16-.58c1.21,0,1.6.72,1.6,2S54.29,253.92,53,253.92Z" transform="translate(-0.08 -0.02)"/><path class="cls-5" d="M58.47,249a.43.43,0,0,1-.45-.43.45.45,0,0,1,.45-.45.47.47,0,0,1,.47.45.46.46,0,0,1-.47.43m-.31.8h.65v4h-.65v-4Z" transform="translate(-0.08 -0.02)"/><path class="cls-5" d="M60.64,251.81c0,.84.21,1.54,1,1.54a.93.93,0,0,0,1-.87v-2a1.23,1.23,0,0,0-.83-.21c-.85,0-1.2.58-1.19,1.55m1.17-2.11a2,2,0,0,1,.85.14v-1.68h.65v4.28a7.73,7.73,0,0,0,.08,1.41H63l-.16-.58h0a1.34,1.34,0,0,1-1.19.66c-1.21,0-1.59-.79-1.6-2.11S60.6,249.7,61.81,249.7Z" transform="translate(-0.08 -0.02)"/><path class="cls-5" d="M99.15,249a.43.43,0,0,1-.45-.43.45.45,0,0,1,.45-.45.47.47,0,0,1,.47.45.46.46,0,0,1-.47.43m-.31.8h.65v4h-.65v-4Z" transform="translate(-0.08 -0.02)"/><path class="cls-5" d="M102.79,249.67c1.05,0,1.34.64,1.34,1.7v2.45h-.65v-2.31c0-.76-.13-1.26-.85-1.27a1.12,1.12,0,0,0-1.1.81v2.77h-.65v-4h.45l.12.49h0a1.58,1.58,0,0,1,1.3-.59" transform="translate(-0.08 -0.02)"/><path class="cls-5" d="M106.31,253.92c-.74,0-.9-.41-.9-1.22v-2.37h-.63v-.57h.63V249l.65-.19v1h1.1v.57h-1.1v2.24c0,.48,0,.75.46.77a1.48,1.48,0,0,0,.68-.16l.15.49a2.23,2.23,0,0,1-1,.23" transform="translate(-0.08 -0.02)"/><path class="cls-5" d="M110.43,251.35c0-.75-.24-1.11-.9-1.11s-1,.37-1.11,1.11h2m-.71,2a1.61,1.61,0,0,0,1-.32l.24.47a2.32,2.32,0,0,1-1.39.42c-1.28,0-1.77-.84-1.79-2.12s.57-2.09,1.78-2.12,1.71.89,1.49,2.19h-2.6C108.41,252.8,108.78,253.35,109.72,253.35Z" transform="translate(-0.08 -0.02)"/><path class="cls-5" d="M112.44,251.8c0,.84.2,1.54,1,1.54a.91.91,0,0,0,1-.85v-2.07a1.91,1.91,0,0,0-.83-.15c-.83,0-1.19.6-1.18,1.54m1.28-2.11a3.74,3.74,0,0,1,1.38.24V254c0,1.07-.58,1.53-1.65,1.53a3,3,0,0,1-1.29-.22l.17-.55a2.65,2.65,0,0,0,1,.2c1,0,1.2-.53,1.13-1.55h0a1.15,1.15,0,0,1-1.07.49c-1.22,0-1.58-.79-1.59-2.1S112.4,249.7,113.72,249.7Z" transform="translate(-0.08 -0.02)"/><path class="cls-5" d="M118.8,251.35c0-.75-.24-1.11-.9-1.11s-1,.37-1.11,1.11h2m-.71,2a1.61,1.61,0,0,0,1-.32l.24.47a2.32,2.32,0,0,1-1.39.42c-1.28,0-1.77-.84-1.79-2.12s.57-2.09,1.78-2.12,1.71.89,1.49,2.19h-2.6C116.79,252.8,117.15,253.35,118.09,253.35Z" transform="translate(-0.08 -0.02)"/><path class="cls-5" d="M121.06,250.26a1.1,1.1,0,0,1,1.44-.49l-.14.62c-.6-.23-1.26,0-1.26.59v2.83h-.65v-4h.45l.12.49h0" transform="translate(-0.08 -0.02)"/><path class="cls-5" d="M37.62,263.62c1.05,0,1.34.64,1.34,1.7v2.45h-.65v-2.31c0-.76-.13-1.26-.85-1.27a1.12,1.12,0,0,0-1.1.81v2.77h-.65v-4h.45l.12.49h0a1.58,1.58,0,0,1,1.3-.59" transform="translate(-0.08 -0.02)"/><path class="cls-5" d="M40.5,266.62a.66.66,0,0,0,.72.65,1.08,1.08,0,0,0,1.05-.64V266c-.77,0-1.73-.08-1.77.66m2.43-1.72a12.53,12.53,0,0,0,.06,2.88h-.48l-.17-.57h0a1.41,1.41,0,0,1-1.26.62,1.09,1.09,0,0,1-1.21-1.15c0-1.19,1.23-1.27,2.45-1.22.08-.75,0-1.29-.8-1.24a3,3,0,0,0-1.2.28l-.2-.49a3,3,0,0,1,1.57-.36A1.11,1.11,0,0,1,42.93,264.9Z" transform="translate(-0.08 -0.02)"/><path class="cls-5" d="M48.13,264.19c-.6,0-.83.36-1,.87v2.71h-.65v-2.29c0-.7,0-1.29-.76-1.29a1,1,0,0,0-1,.79v2.79h-.65v-4h.45l.12.49h0a1.5,1.5,0,0,1,1.26-.59.93.93,0,0,1,1,.67,1.44,1.44,0,0,1,1.26-.67c1.05,0,1.26.66,1.26,1.72v2.43H48.9v-2.44c0-.67-.1-1.16-.77-1.14" transform="translate(-0.08 -0.02)"/><path class="cls-5" d="M53.2,265.3c0-.75-.24-1.11-.9-1.11s-1,.37-1.11,1.11h2m-.71,2a1.61,1.61,0,0,0,1-.32l.24.47a2.32,2.32,0,0,1-1.39.42c-1.28,0-1.77-.84-1.79-2.12s.57-2.09,1.78-2.12,1.71.89,1.49,2.19h-2.6C51.18,266.75,51.54,267.3,52.48,267.3Z" transform="translate(-0.08 -0.02)"/><path class="cls-5" d="M98.9,263.72a32.83,32.83,0,0,1,1.21,3.14,25.61,25.61,0,0,1,1.11-3.14h.7l-1.73,4.14h-.28l-1.76-4.14h.75" transform="translate(-0.08 -0.02)"/><path class="cls-5" d="M103,266.62a.66.66,0,0,0,.72.65,1.08,1.08,0,0,0,1.05-.64V266c-.77,0-1.73-.08-1.77.66m2.43-1.72a12.53,12.53,0,0,0,.06,2.88H105l-.17-.57h0a1.41,1.41,0,0,1-1.26.62,1.09,1.09,0,0,1-1.22-1.15c0-1.19,1.23-1.27,2.45-1.22.08-.75,0-1.29-.8-1.24a3,3,0,0,0-1.2.28l-.2-.49a3,3,0,0,1,1.57-.36A1.11,1.11,0,0,1,105.41,264.9Z" transform="translate(-0.08 -0.02)"/><path class="cls-5" d="M107.24,264.21a1.1,1.1,0,0,1,1.44-.49l-.14.62c-.6-.23-1.26,0-1.26.59v2.83h-.65v-4h.45l.12.49h0" transform="translate(-0.08 -0.02)"/><path class="cls-5" d="M111,267.3a1.47,1.47,0,0,0,.9-.29l.21.49a2.15,2.15,0,0,1-1.27.36c-1.27,0-1.68-.85-1.72-2.12a1.84,1.84,0,0,1,2.42-2.06,2.15,2.15,0,0,1,.49.17l-.19.56a1.84,1.84,0,0,0-.9-.23c-.77,0-1.15.52-1.15,1.56s.32,1.53,1.21,1.56" transform="translate(-0.08 -0.02)"/><path class="cls-5" d="M115,263.62c1.06,0,1.33.63,1.33,1.7v2.45h-.65v-2.31c0-.74-.12-1.27-.87-1.27a1.05,1.05,0,0,0-1.09.88v2.7H113V262.1h.65v2.07h0a1.51,1.51,0,0,1,1.24-.55" transform="translate(-0.08 -0.02)"/><path class="cls-5" d="M117.83,266.62a.66.66,0,0,0,.72.65,1.08,1.08,0,0,0,1.05-.64V266c-.77,0-1.73-.08-1.77.66m2.43-1.72a12.53,12.53,0,0,0,.06,2.88h-.48l-.17-.57h0a1.41,1.41,0,0,1-1.26.62,1.09,1.09,0,0,1-1.22-1.15c0-1.19,1.23-1.27,2.45-1.22.08-.75,0-1.29-.8-1.24a3,3,0,0,0-1.2.28l-.2-.49a3,3,0,0,1,1.57-.36A1.11,1.11,0,0,1,120.26,264.9Z" transform="translate(-0.08 -0.02)"/><path class="cls-5" d="M122.09,264.21a1.1,1.1,0,0,1,1.44-.49l-.14.62c-.6-.23-1.26,0-1.26.59v2.83h-.65v-4h.45l.12.49h0" transform="translate(-0.08 -0.02)"/><rect class="cls-1" x="385.46" y="84.02" width="126" height="18"/><path class="cls-4" d="M385.54,85.16A1.11,1.11,0,0,1,386.67,84H510.42a1.11,1.11,0,0,1,1.13,1.13v58.72a1.14,1.14,0,0,1-1.12,1.13H386.67a1.14,1.14,0,0,1-1.12-1.12Z" transform="translate(-0.08 -0.02)"/><line class="cls-4" x1="385.46" y1="102.02" x2="511.46" y2="102.02"/><line class="cls-4" x1="448.46" y1="102.02" x2="448.46" y2="144.99"/><polyline class="cls-5" points="398.73 91.71 397.07 91.71 397.07 94.05 397.07 96.39 395.96 96.39 395.96 94.05 395.96 91.71 394.3 91.71 394.3 91.21 394.3 90.72 398.73 90.72 398.73 91.21 398.73 91.71"/><path class="cls-5" d="M400.72,94c0-.54-.15-.91-.66-.91s-.79.38-.85.91h1.51m-.49,1.68a1.82,1.82,0,0,0,1-.31l.35.69a2.7,2.7,0,0,1-1.55.46c-1.32,0-1.88-.83-1.89-2.14s.66-2.14,1.94-2.14a1.46,1.46,0,0,1,1.62,1.64,3.93,3.93,0,0,1-.08.77h-2.43C399.22,95.33,399.5,95.68,400.22,95.68Z" transform="translate(-0.08 -0.02)"/><path class="cls-5" d="M403.25,95.13c0,.3.19.48.5.48a.88.88,0,0,0,.78-.45v-.53c-.58,0-1.24,0-1.28.49m1.21-1.78c-.31-.4-1.39-.14-1.79,0l-.25-.79a4.4,4.4,0,0,1,1.7-.32c1,0,1.47.45,1.46,1.42a9.41,9.41,0,0,0,.09,2.72h-.86l-.17-.56h0a1.34,1.34,0,0,1-1.19.62,1.12,1.12,0,0,1-1.24-1.18c0-1.15,1.13-1.33,2.36-1.3A.91.91,0,0,0,404.46,93.35Z" transform="translate(-0.08 -0.02)"/><path class="cls-5" d="M408.3,95.59a1.31,1.31,0,0,0,.79-.23l.24.8a2.23,2.23,0,0,1-1.3.36c-1.3,0-1.73-.84-1.77-2.14a1.88,1.88,0,0,1,2.52-2.07,2.72,2.72,0,0,1,.49.19l-.25.86a1.66,1.66,0,0,0-.79-.19c-.66,0-.9.45-.89,1.21s.26,1.18.95,1.21" transform="translate(-0.08 -0.02)"/><path class="cls-5" d="M412.25,92.25c1,0,1.25.64,1.25,1.64v2.52h-1.05v-2.3c0-.6-.09-.93-.64-.93a.84.84,0,0,0-.79.65v2.58H410V90.74H411v2.07h0a1.39,1.39,0,0,1,1.2-.57" transform="translate(-0.08 -0.02)"/><path class="cls-5" d="M416.77,94c0-.54-.15-.91-.66-.91s-.79.38-.85.91h1.51m-.49,1.68a1.82,1.82,0,0,0,1-.31l.35.69a2.7,2.7,0,0,1-1.55.46c-1.32,0-1.88-.83-1.89-2.14s.66-2.14,1.94-2.14a1.46,1.46,0,0,1,1.62,1.64,3.93,3.93,0,0,1-.08.77h-2.43C415.28,95.33,415.55,95.68,416.28,95.68Z" transform="translate(-0.08 -0.02)"/><path class="cls-5" d="M419.47,92.89a1,1,0,0,1,1.4-.53l-.14,1a.82.82,0,0,0-1.18.45v2.62h-1.05v-4h.82l.12.53h0" transform="translate(-0.08 -0.02)"/><path class="cls-5" d="M422.5,95.68c.43.07.71-.43.38-.65-.65-.43-1.73-.45-1.71-1.56,0-.83.53-1.23,1.39-1.23a3.19,3.19,0,0,1,1.42.32l-.23.76a3.43,3.43,0,0,0-1-.23c-.44,0-.63.41-.33.6.66.4,1.73.43,1.71,1.51,0,.89-.61,1.32-1.57,1.32a3,3,0,0,1-1.42-.36l.29-.79a2.43,2.43,0,0,0,1.13.31" transform="translate(-0.08 -0.02)"/><path class="cls-5" d="M395.67,112.48c-.74,0-.9-.41-.9-1.22V108.9h-.63v-.57h.63v-.8l.65-.19v1h1.1v.57h-1.1v2.24c0,.48,0,.75.46.77a1.48,1.48,0,0,0,.68-.16l.15.49a2.23,2.23,0,0,1-1,.23" transform="translate(-0.08 -0.02)"/><path class="cls-5" d="M399.79,109.91c0-.75-.24-1.11-.9-1.11s-1,.37-1.11,1.11h2m-.71,2a1.61,1.61,0,0,0,1-.32l.24.47a2.32,2.32,0,0,1-1.39.42c-1.28,0-1.77-.84-1.79-2.12s.57-2.09,1.78-2.12,1.71.89,1.49,2.19h-2.6C397.78,111.36,398.14,111.91,399.08,111.91Z" transform="translate(-0.08 -0.02)"/><path class="cls-5" d="M401.81,111.23a.66.66,0,0,0,.72.65,1.08,1.08,0,0,0,1.05-.64v-.67c-.77,0-1.73-.08-1.77.66m2.43-1.72a12.53,12.53,0,0,0,.06,2.88h-.48l-.17-.57h0a1.41,1.41,0,0,1-1.26.62,1.09,1.09,0,0,1-1.21-1.15c0-1.19,1.23-1.27,2.45-1.22.08-.75,0-1.29-.8-1.24a3,3,0,0,0-1.2.28l-.2-.49a3,3,0,0,1,1.57-.36A1.11,1.11,0,0,1,404.24,109.52Z" transform="translate(-0.08 -0.02)"/><path class="cls-5" d="M407.12,111.91a1.47,1.47,0,0,0,.9-.29l.21.49a2.15,2.15,0,0,1-1.27.36c-1.27,0-1.68-.85-1.72-2.12a1.84,1.84,0,0,1,2.42-2.06,2.15,2.15,0,0,1,.49.17L408,109a1.84,1.84,0,0,0-.9-.23c-.77,0-1.15.52-1.15,1.56s.32,1.53,1.21,1.56" transform="translate(-0.08 -0.02)"/><path class="cls-5" d="M411,108.24c1.06,0,1.33.63,1.33,1.7v2.45h-.65v-2.31c0-.74-.12-1.27-.87-1.27a1.05,1.05,0,0,0-1.09.88v2.7h-.65v-5.67h.65v2.07h0a1.51,1.51,0,0,1,1.24-.55" transform="translate(-0.08 -0.02)"/><path class="cls-5" d="M416,109.91c0-.75-.24-1.11-.9-1.11s-1,.37-1.11,1.11h2m-.71,2a1.61,1.61,0,0,0,1-.32l.24.47a2.32,2.32,0,0,1-1.39.42c-1.28,0-1.77-.84-1.79-2.12s.57-2.09,1.78-2.12,1.71.89,1.49,2.19H414C414,111.36,414.36,111.91,415.3,111.91Z" transform="translate(-0.08 -0.02)"/><path class="cls-5" d="M418.27,108.83a1.1,1.1,0,0,1,1.44-.49l-.14.62c-.6-.23-1.26,0-1.26.59v2.83h-.65v-4h.45l.12.49h0" transform="translate(-0.08 -0.02)"/><path class="cls-5" d="M423,107.53a.43.43,0,0,1-.45-.43.45.45,0,0,1,.45-.45.47.47,0,0,1,.47.45.46.46,0,0,1-.47.43m-.31.8h.65v4h-.65v-4Z" transform="translate(-0.08 -0.02)"/><path class="cls-5" d="M425.19,110.37c0,.84.21,1.54,1,1.54a.93.93,0,0,0,1-.87v-2a1.23,1.23,0,0,0-.83-.21c-.85,0-1.2.58-1.19,1.55m1.17-2.11a2,2,0,0,1,.85.14v-1.68h.65V111a7.73,7.73,0,0,0,.08,1.41h-.44l-.16-.58h0a1.34,1.34,0,0,1-1.19.66c-1.21,0-1.59-.79-1.6-2.11S425.14,108.27,426.36,108.26Z" transform="translate(-0.08 -0.02)"/><path class="cls-5" d="M458.12,107.53a.43.43,0,0,1-.45-.43.45.45,0,0,1,.45-.45.47.47,0,0,1,.47.45.46.46,0,0,1-.47.43m-.31.8h.65v4h-.65v-4Z" transform="translate(-0.08 -0.02)"/><path class="cls-5" d="M461.76,108.24c1.05,0,1.34.64,1.34,1.7v2.45h-.65v-2.31c0-.76-.13-1.26-.85-1.27a1.12,1.12,0,0,0-1.1.81v2.77h-.65v-4h.45l.12.49h0a1.58,1.58,0,0,1,1.3-.59" transform="translate(-0.08 -0.02)"/><path class="cls-5" d="M465.27,112.48c-.74,0-.9-.41-.9-1.22V108.9h-.63v-.57h.63v-.8l.65-.19v1h1.1v.57H465v2.24c0,.48,0,.75.46.77a1.48,1.48,0,0,0,.68-.16l.15.49a2.23,2.23,0,0,1-1,.23" transform="translate(-0.08 -0.02)"/><path class="cls-5" d="M469.39,109.91c0-.75-.24-1.11-.9-1.11s-1,.37-1.11,1.11h2m-.71,2a1.61,1.61,0,0,0,1-.32l.24.47a2.32,2.32,0,0,1-1.39.42c-1.28,0-1.77-.84-1.79-2.12s.57-2.09,1.78-2.12,1.71.89,1.49,2.19h-2.6C467.38,111.36,467.74,111.91,468.68,111.91Z" transform="translate(-0.08 -0.02)"/><path class="cls-5" d="M471.4,110.37c0,.84.2,1.54,1,1.54a.91.91,0,0,0,1-.85V109a1.9,1.9,0,0,0-.83-.15c-.83,0-1.19.6-1.18,1.54m1.28-2.11a3.74,3.74,0,0,1,1.38.24v4.07c0,1.07-.58,1.53-1.65,1.53a3,3,0,0,1-1.29-.22l.17-.55a2.65,2.65,0,0,0,1,.2c1,0,1.2-.53,1.13-1.55h0a1.15,1.15,0,0,1-1.07.49c-1.22,0-1.58-.79-1.59-2.1S471.36,108.26,472.68,108.26Z" transform="translate(-0.08 -0.02)"/><path class="cls-5" d="M477.77,109.91c0-.75-.24-1.11-.9-1.11s-1,.37-1.11,1.11h2m-.71,2a1.61,1.61,0,0,0,1-.32l.24.47a2.32,2.32,0,0,1-1.39.42c-1.28,0-1.77-.84-1.79-2.12s.57-2.09,1.78-2.12,1.71.89,1.49,2.19h-2.6C475.75,111.36,476.12,111.91,477.06,111.91Z" transform="translate(-0.08 -0.02)"/><path class="cls-5" d="M480,108.83a1.1,1.1,0,0,1,1.44-.49l-.14.62c-.6-.23-1.26,0-1.26.59v2.83h-.65v-4h.45l.12.49h0" transform="translate(-0.08 -0.02)"/><path class="cls-5" d="M396.08,121.18c-.61,0-.58.51-.58,1.1h1.08v.57h-1.08v3.48h-.65v-3.48h-.63v-.57h.63c0-1,.18-1.69,1.16-1.67a2.2,2.2,0,0,1,.87.15l-.15.54a1.59,1.59,0,0,0-.66-.13" transform="translate(-0.08 -0.02)"/><path class="cls-5" d="M397.7,121.48a.43.43,0,0,1-.45-.43.45.45,0,0,1,.45-.45.47.47,0,0,1,.47.45.46.46,0,0,1-.47.43m-.31.8H398v4h-.65v-4Z" transform="translate(-0.08 -0.02)"/><path class="cls-5" d="M400,122.78a1.1,1.1,0,0,1,1.44-.49l-.14.62c-.6-.23-1.26,0-1.26.59v2.83h-.65v-4h.45l.12.49h0" transform="translate(-0.08 -0.02)"/><path class="cls-5" d="M402.07,125.58c.48.29,1.94.58,1.9-.35,0-.74-1-.66-1.45-1a1,1,0,0,1-.5-.92c0-.79.48-1.12,1.26-1.13a2.74,2.74,0,0,1,1.25.26l-.15.53c-.42-.21-1.79-.51-1.7.32.07.67,1,.6,1.44,1a1.11,1.11,0,0,1,.51,1c0,.83-.55,1.21-1.41,1.22a2.71,2.71,0,0,1-1.33-.3" transform="translate(-0.08 -0.02)"/><path class="cls-5" d="M406.59,126.43c-.74,0-.9-.41-.9-1.22v-2.37h-.63v-.57h.63v-.8l.65-.19v1h1.1v.57h-1.1v2.24c0,.48,0,.75.46.77a1.48,1.48,0,0,0,.68-.16l.15.49a2.23,2.23,0,0,1-1,.23" transform="translate(-0.08 -0.02)"/><path class="cls-5" d="M412.38,122.19c1.05,0,1.34.64,1.34,1.7v2.45h-.65V124c0-.76-.13-1.26-.85-1.27a1.12,1.12,0,0,0-1.1.81v2.77h-.65v-4h.45l.12.49h0a1.58,1.58,0,0,1,1.3-.59" transform="translate(-0.08 -0.02)"/><path class="cls-5" d="M415.26,125.18a.66.66,0,0,0,.72.65,1.08,1.08,0,0,0,1.05-.64v-.67c-.77,0-1.73-.08-1.77.66m2.43-1.72a12.53,12.53,0,0,0,.06,2.88h-.48l-.17-.57h0a1.41,1.41,0,0,1-1.26.62,1.09,1.09,0,0,1-1.21-1.15c0-1.19,1.23-1.27,2.45-1.22.08-.75,0-1.29-.8-1.24a3,3,0,0,0-1.2.28l-.2-.49a3,3,0,0,1,1.57-.36A1.11,1.11,0,0,1,417.69,123.47Z" transform="translate(-0.08 -0.02)"/><path class="cls-5" d="M422.89,122.75c-.6,0-.83.36-1,.87v2.71h-.65V124c0-.7,0-1.29-.76-1.29a1,1,0,0,0-1,.79v2.79h-.65v-4h.45l.12.49h0a1.5,1.5,0,0,1,1.26-.59.93.93,0,0,1,1,.67,1.44,1.44,0,0,1,1.26-.67c1.05,0,1.26.66,1.26,1.72v2.43h-.65V123.9c0-.67-.1-1.16-.77-1.14" transform="translate(-0.08 -0.02)"/><path class="cls-5" d="M428,123.86c0-.75-.24-1.11-.9-1.11s-1,.37-1.11,1.11h2m-.71,2a1.61,1.61,0,0,0,1-.32l.24.47a2.32,2.32,0,0,1-1.39.42c-1.28,0-1.77-.84-1.79-2.12s.57-2.09,1.78-2.12,1.71.89,1.49,2.19h-2.6C425.94,125.31,426.3,125.86,427.24,125.86Z" transform="translate(-0.08 -0.02)"/><path class="cls-5" d="M457.87,122.28a32.84,32.84,0,0,1,1.21,3.14,25.61,25.61,0,0,1,1.11-3.14h.7l-1.73,4.14h-.28l-1.76-4.14h.75" transform="translate(-0.08 -0.02)"/><path class="cls-5" d="M461.94,125.18a.66.66,0,0,0,.72.65,1.08,1.08,0,0,0,1.05-.64v-.67c-.77,0-1.73-.08-1.77.66m2.43-1.72a12.53,12.53,0,0,0,.06,2.88H464l-.17-.57h0a1.41,1.41,0,0,1-1.26.62,1.09,1.09,0,0,1-1.21-1.15c0-1.19,1.23-1.27,2.45-1.22.08-.75,0-1.29-.8-1.24a3,3,0,0,0-1.2.28l-.2-.49a3,3,0,0,1,1.57-.36A1.11,1.11,0,0,1,464.37,123.47Z" transform="translate(-0.08 -0.02)"/><path class="cls-5" d="M466.2,122.78a1.1,1.1,0,0,1,1.44-.49l-.14.62c-.6-.23-1.26,0-1.26.59v2.83h-.65v-4H466l.12.49h0" transform="translate(-0.08 -0.02)"/><path class="cls-5" d="M470,125.86a1.47,1.47,0,0,0,.9-.29l.21.49a2.15,2.15,0,0,1-1.27.36c-1.27,0-1.68-.85-1.72-2.12a1.84,1.84,0,0,1,2.42-2.06,2.15,2.15,0,0,1,.49.17l-.19.56a1.84,1.84,0,0,0-.9-.23c-.77,0-1.15.52-1.15,1.56s.32,1.53,1.21,1.56" transform="translate(-0.08 -0.02)"/><path class="cls-5" d="M473.92,122.19c1.06,0,1.33.63,1.33,1.7v2.45h-.65V124c0-.74-.12-1.27-.87-1.27a1.05,1.05,0,0,0-1.09.88v2.7H472v-5.67h.65v2.07h0a1.51,1.51,0,0,1,1.24-.55" transform="translate(-0.08 -0.02)"/><path class="cls-5" d="M476.8,125.18a.66.66,0,0,0,.72.65,1.08,1.08,0,0,0,1.05-.64v-.67c-.77,0-1.73-.08-1.77.66m2.43-1.72a12.53,12.53,0,0,0,.06,2.88h-.48l-.17-.57h0a1.41,1.41,0,0,1-1.26.62,1.09,1.09,0,0,1-1.21-1.15c0-1.19,1.23-1.27,2.45-1.22.08-.75,0-1.29-.8-1.24a3,3,0,0,0-1.2.28l-.2-.49a3,3,0,0,1,1.57-.36A1.11,1.11,0,0,1,479.23,123.47Z" transform="translate(-0.08 -0.02)"/><path class="cls-5" d="M481.06,122.78a1.1,1.1,0,0,1,1.44-.49l-.14.62c-.6-.23-1.26,0-1.26.59v2.83h-.65v-4h.45l.12.49h0" transform="translate(-0.08 -0.02)"/><path class="cls-5" d="M395.58,140.38a.79.79,0,0,1-.83-.91v-4.86h.65v4.67c-.08.58.48.6.87.44l.07.51a2.12,2.12,0,0,1-.76.15" transform="translate(-0.08 -0.02)"/><path class="cls-5" d="M397.4,139.13a.66.66,0,0,0,.72.65,1.08,1.08,0,0,0,1.05-.64v-.67c-.77,0-1.73-.08-1.77.66m2.43-1.72a12.53,12.53,0,0,0,.06,2.88h-.48l-.17-.57h0a1.41,1.41,0,0,1-1.26.62,1.09,1.09,0,0,1-1.21-1.15c0-1.19,1.23-1.27,2.45-1.22.08-.75,0-1.29-.8-1.24a3,3,0,0,0-1.2.28l-.2-.49a3,3,0,0,1,1.57-.36A1.11,1.11,0,0,1,399.83,137.42Z" transform="translate(-0.08 -0.02)"/><path class="cls-5" d="M400.94,139.53c.48.29,1.94.58,1.9-.35,0-.74-1-.66-1.45-1a1,1,0,0,1-.5-.92c0-.79.48-1.12,1.26-1.13a2.74,2.74,0,0,1,1.25.26l-.15.53c-.42-.21-1.79-.51-1.7.32.07.67,1,.6,1.44,1a1.11,1.11,0,0,1,.51,1c0,.83-.55,1.21-1.41,1.22a2.71,2.71,0,0,1-1.33-.3" transform="translate(-0.08 -0.02)"/><path class="cls-5" d="M405.46,140.38c-.74,0-.9-.41-.9-1.22V136.8h-.63v-.57h.63v-.8l.65-.19v1h1.1v.57h-1.1V139c0,.48,0,.75.46.77a1.48,1.48,0,0,0,.68-.16l.15.49a2.23,2.23,0,0,1-1,.23" transform="translate(-0.08 -0.02)"/><path class="cls-5" d="M411.26,136.14c1.05,0,1.34.64,1.34,1.7v2.45h-.65V138c0-.76-.13-1.26-.85-1.27a1.12,1.12,0,0,0-1.1.81v2.77h-.65v-4h.45l.12.49h0a1.58,1.58,0,0,1,1.3-.59" transform="translate(-0.08 -0.02)"/><path class="cls-5" d="M414.14,139.13a.66.66,0,0,0,.72.65,1.08,1.08,0,0,0,1.05-.64v-.67c-.77,0-1.73-.08-1.77.66m2.43-1.72a12.53,12.53,0,0,0,.06,2.88h-.48l-.17-.57h0a1.41,1.41,0,0,1-1.26.62,1.09,1.09,0,0,1-1.21-1.15c0-1.19,1.23-1.27,2.45-1.22.08-.75,0-1.29-.8-1.24a3,3,0,0,0-1.2.28l-.2-.49a3,3,0,0,1,1.57-.36A1.11,1.11,0,0,1,416.57,137.42Z" transform="translate(-0.08 -0.02)"/><path class="cls-5" d="M421.77,136.7c-.6,0-.83.36-1,.87v2.71h-.65V138c0-.7,0-1.29-.76-1.29a1,1,0,0,0-1,.79v2.79h-.65v-4h.45l.12.49h0a1.5,1.5,0,0,1,1.26-.59.93.93,0,0,1,1,.67,1.44,1.44,0,0,1,1.26-.67c1.05,0,1.26.66,1.26,1.72v2.43h-.65v-2.44c0-.67-.1-1.16-.77-1.14" transform="translate(-0.08 -0.02)"/><path class="cls-5" d="M426.83,137.81c0-.75-.24-1.11-.9-1.11s-1,.37-1.11,1.11h2m-.71,2a1.61,1.61,0,0,0,1-.32l.24.47a2.32,2.32,0,0,1-1.39.42c-1.28,0-1.77-.84-1.79-2.12s.57-2.09,1.78-2.12,1.71.89,1.49,2.19h-2.6C424.81,139.26,425.18,139.81,426.12,139.81Z" transform="translate(-0.08 -0.02)"/><path class="cls-5" d="M457.87,136.23a32.84,32.84,0,0,1,1.21,3.14,25.61,25.61,0,0,1,1.11-3.14h.7l-1.73,4.14h-.28l-1.76-4.14h.75" transform="translate(-0.08 -0.02)"/><path class="cls-5" d="M461.94,139.13a.66.66,0,0,0,.72.65,1.08,1.08,0,0,0,1.05-.64v-.67c-.77,0-1.73-.08-1.77.66m2.43-1.72a12.53,12.53,0,0,0,.06,2.88H464l-.17-.57h0a1.41,1.41,0,0,1-1.26.62,1.09,1.09,0,0,1-1.21-1.15c0-1.19,1.23-1.27,2.45-1.22.08-.75,0-1.29-.8-1.24a3,3,0,0,0-1.2.28l-.2-.49a3,3,0,0,1,1.57-.36A1.11,1.11,0,0,1,464.37,137.42Z" transform="translate(-0.08 -0.02)"/><path class="cls-5" d="M466.2,136.73a1.1,1.1,0,0,1,1.44-.49l-.14.62c-.6-.23-1.26,0-1.26.59v2.83h-.65v-4H466l.12.49h0" transform="translate(-0.08 -0.02)"/><path class="cls-5" d="M470,139.81a1.47,1.47,0,0,0,.9-.29l.21.49a2.15,2.15,0,0,1-1.27.36c-1.27,0-1.68-.85-1.72-2.12a1.84,1.84,0,0,1,2.42-2.06,2.15,2.15,0,0,1,.49.17l-.19.56a1.84,1.84,0,0,0-.9-.23c-.77,0-1.15.52-1.15,1.56s.32,1.53,1.21,1.56" transform="translate(-0.08 -0.02)"/><path class="cls-5" d="M473.92,136.14c1.06,0,1.33.63,1.33,1.7v2.45h-.65V138c0-.74-.12-1.27-.87-1.27a1.05,1.05,0,0,0-1.09.88v2.7H472v-5.67h.65v2.07h0a1.51,1.51,0,0,1,1.24-.55" transform="translate(-0.08 -0.02)"/><path class="cls-5" d="M476.8,139.13a.66.66,0,0,0,.72.65,1.08,1.08,0,0,0,1.05-.64v-.67c-.77,0-1.73-.08-1.77.66m2.43-1.72a12.53,12.53,0,0,0,.06,2.88h-.48l-.17-.57h0a1.41,1.41,0,0,1-1.26.62,1.09,1.09,0,0,1-1.21-1.15c0-1.19,1.23-1.27,2.45-1.22.08-.75,0-1.29-.8-1.24a3,3,0,0,0-1.2.28l-.2-.49a3,3,0,0,1,1.57-.36A1.11,1.11,0,0,1,479.23,137.42Z" transform="translate(-0.08 -0.02)"/><path class="cls-5" d="M481.06,136.73a1.1,1.1,0,0,1,1.44-.49l-.14.62c-.6-.23-1.26,0-1.26.59v2.83h-.65v-4h.45l.12.49h0" transform="translate(-0.08 -0.02)"/><path class="cls-4" d="M152.53,54h23.85a2.23,2.23,0,0,1,2.25,2.25v23a2.29,2.29,0,0,0,2.25,2.25h25.07" transform="translate(-0.08 -0.02)"/><polygon class="cls-5" points="162.44 54 152.63 58.91 152.45 58.5 152.45 58.01 160.46 54 152.45 49.99 152.45 49.5 152.63 49.09 162.44 54"/><rect class="cls-5" x="161" y="49.5" width="0.9" height="9"/><rect class="cls-5" x="200.91" y="77.04" width="0.9" height="9"/><rect class="cls-5" x="196.41" y="77.04" width="0.9" height="9"/><path class="cls-4" d="M206.22,159.09H180.88a2.23,2.23,0,0,1-2.25-2.25v-73a2.23,2.23,0,0,1,2.25-2.25h25.07" transform="translate(-0.08 -0.02)"/><polygon class="cls-5" points="206.13 154.57 206.13 155.07 198.17 159.07 206.13 163.08 206.13 163.57 205.96 163.98 196.15 159.07 205.96 154.17 206.13 154.57"/><rect class="cls-5" x="196.68" y="154.57" width="0.9" height="9"/><rect class="cls-5" x="200.91" y="77.04" width="0.9" height="9"/><rect class="cls-5" x="196.41" y="77.04" width="0.9" height="9"/><path class="cls-4" d="M26.53,39.89H2.78A2.23,2.23,0,0,0,.53,42.14V143a2.26,2.26,0,0,0,2.25,2.25H26.53" transform="translate(-0.08 -0.02)"/><polygon class="cls-5" points="26.45 35.37 26.45 35.87 18.44 39.87 26.45 43.88 26.45 44.37 26.27 44.77 16.46 39.87 26.27 34.97 26.45 35.37"/><rect class="cls-5" x="17" y="35.37" width="0.9" height="9"/><rect class="cls-5" x="21.5" y="140.71" width="0.9" height="9"/><rect class="cls-5" x="17" y="140.71" width="0.9" height="9"/><path class="cls-4" d="M26.53,187.71H2.78A2.23,2.23,0,0,0,.53,190v58.82A2.23,2.23,0,0,0,2.78,251H26.53" transform="translate(-0.08 -0.02)"/><polygon class="cls-5" points="26.45 183.19 26.45 183.69 18.44 187.69 26.45 191.7 26.45 192.19 26.27 192.6 16.46 187.69 26.27 182.79 26.45 183.19"/><rect class="cls-5" x="17" y="183.2" width="0.9" height="9"/><rect class="cls-5" x="21.5" y="246.51" width="0.9" height="9"/><rect class="cls-5" x="17" y="246.51" width="0.9" height="9"/><path class="cls-4" d="M152.53,251h24.62a2.26,2.26,0,0,0,2.25-2.25v-59a2.23,2.23,0,0,1,2.25-2.25h24.57" transform="translate(-0.08 -0.02)"/><rect class="cls-5" x="156.5" y="246.51" width="0.9" height="9"/><rect class="cls-5" x="161" y="246.51" width="0.9" height="9"/><polygon class="cls-5" points="206.13 183.01 206.13 183.51 198.17 187.51 206.13 191.52 206.13 192.01 205.96 192.42 196.15 187.51 205.96 182.61 206.13 183.01"/><rect class="cls-5" x="196.68" y="183.02" width="0.9" height="9"/><path class="cls-4" d="M332.22,173.31h24.43a2.26,2.26,0,0,0,2.25-2.25V111.71a2.23,2.23,0,0,1,2.25-2.25h24.39" transform="translate(-0.08 -0.02)"/><polygon class="cls-5" points="342.17 173.29 332.36 178.2 332.13 177.79 332.13 177.3 340.14 173.29 332.13 169.29 332.13 168.79 332.36 168.39 342.17 173.29"/><rect class="cls-5" x="340.68" y="168.8" width="0.9" height="9"/><rect class="cls-5" x="380.51" y="104.94" width="0.9" height="9"/><rect class="cls-5" x="376.01" y="104.94" width="0.9" height="9"/></svg>